<?xml version="1.0" encoding="utf-8"?>
<!-- Generator: Adobe Illustrator 25.2.3, SVG Export Plug-In . SVG Version: 6.00 Build 0)  -->
<svg version="1.1" id="Layer_1" xmlns="http://www.w3.org/2000/svg" xmlns:xlink="http://www.w3.org/1999/xlink" x="0px" y="0px"
	 viewBox="0 0 1920 1080" style="enable-background:new 0 0 1920 1080;" xml:space="preserve">
<style type="text/css">
	.st0{fill:#DDE8FD;}
	.st1{fill:#FCA2A1;}
	.st2{fill:#EB8E8E;}
	.st3{fill:#BED2FA;}
	.st4{fill:#93B3F4;}
	.st5{fill:#0D0D38;}
	.st6{fill:#718DD0;}
	.st7{fill:#3662C1;}
	.st8{fill:#A83F3F;}
	.st9{fill:#ED6966;}
	.st10{fill:#C3D5FA;}
	.st11{fill:#FA7269;}
	.st12{fill:#6D89CF;}
	.st13{opacity:0.4;fill:#C3D5FA;enable-background:new    ;}
	.st14{fill:#EA6968;}
	.st15{fill:#E75755;}
	.st16{fill:#9E332E;}
	.st17{fill:#0B0754;}
	.st18{fill:#2B276A;}
	.st19{fill:#010117;}
	.st20{fill:#EA8888;}
	.st21{fill:#3A49CD;}
	.st22{fill:#C6D7FB;}
	.st23{fill:#E08A8A;}
	.st24{fill:#C7D8FB;}
	.st25{fill:#FFFFFF;}
	.st26{fill:#12123C;}
	.st27{fill:#A74541;}
	.st28{fill:#060632;}
	.st29{fill:#547ACA;}
	.st30{fill:#FC9290;}
	.st31{fill:#E75957;}
	.st32{fill:#EA6B69;}
</style>
<path class="st0" d="M197.8,976.3c0,0-142-215.1,25.1-317.7c93.3-57.3,220.6,44.4,315.2-109.3c55-89.5,247.7-116.6,344,5.5
	c96.3,122.1,179.1,121.5,245.6,98.9c76.2-25.9,109.7-103.9,229-87.4c137.9,19.1,119.4,134.6,221,114.5
	c195.9-38.8,341.1,182.9,205.7,297L197.8,976.3z"/>
<g>
	<path class="st1" d="M301.6,602.3l0,2.9c0,0-0.8,9,10.3,10.3c11,1.3,19.4-3.5,19.1-10.4c-1-5.4-2.1-9-2.2-13.5
		c0-1.6,0.1-3.4,0.4-5.4l-21.4-0.4l-6.3,1L301.6,602.3z"/>
	<path class="st2" d="M301.5,586.8l0.1,15.5c2.3,1.1,4.8,1.7,7.7,1.7c9.8,0,16.2-7.2,19.5-12.4c0-1.6,0.1-3.4,0.4-5.4l-21.4-0.4
		L301.5,586.8z"/>
	<path class="st1" d="M300.2,594.3c0,0,27.4,5.5,30.6-11.6c3.2-17.1,8.9-27.9-8.5-32.2s-22,1.6-24.4,7.1
		C295.4,563.1,293.2,592.4,300.2,594.3z"/>
	<path class="st1" d="M301.9,606.5c0,0-6.5,34.9-13.6,71.5c-7.7,39.7-26.6,77.6-28.2,79.1c-2.3,2.1-11.4-0.6-7.7-2.8
		c5-3,4.7-38.2,6.5-58.9c0.4-5,1-9.2,1.5-11.8c2.9-13.1,3.8-59.4,12.5-66.7C281.6,609.6,301.9,606.5,301.9,606.5z"/>
	<path class="st3" d="M301.9,606.5c0,0-3.8,20.1-8.7,45.8c-1.6,8.1-3.2,16.8-5,25.6c-7,13.7-13,23-14.8,21.2
		c-3.8-3.6-10.4-4-14.6-3.9c0.4-5,1-9.2,1.5-11.8c0.2-1,0.5-2.3,0.7-3.7c2.4-16.5,3.8-56.3,11.9-63
		C281.6,609.6,301.9,606.5,301.9,606.5z"/>
	<path class="st4" d="M293.2,652.4c-1.6,8.1-3.2,16.8-5,25.6c-7,13.7-13,23-14.8,21.2c-3.8-3.6-10.4-4-14.6-3.9
		c0.4-5,1-9.2,1.5-11.8c0.2-1,0.5-2.3,0.7-3.7l20.9-50.5L293.2,652.4z"/>
	<path class="st5" d="M320.4,976.4c0,0,1-8,3.4-12.7c2.4-4.7,17.5-1.7,17.5-1.7s3,2.6,3.7,14.7L320.4,976.4z"/>
	<path class="st5" d="M269,976.3c3.5-2.2,1.5-18.3,1.5-18.3s-16.5-13.2-18.8-3.1c-2.3,10.1-15.7,14.7-23.3,15.9
		c-5.3,0.8-6.9,3.8-7.4,5.5H269z"/>
	<path class="st6" d="M303.3,858.9c-0.7,3.7-1.1,6.7-1.2,8.9c-1.5,30-25.2,98.4-29.4,100c-6.5,2.5-16.9-2.8-22.3-4.5
		c-2.2-0.7-3.7-3-3.3-5.3c11.7-53.9,16-131.5,17.6-177.5c0.8-23.2,4.8-39.1,4.8-39.1s57.7-15.4,58.1,4.1
		C327.8,762.8,308.4,830.4,303.3,858.9z"/>
	<path class="st7" d="M303.3,858.9l-38.6-78.3c0.8-23.2,4.8-39.1,4.8-39.1s57.7-15.4,58.1,4.1C327.8,762.8,308.4,830.4,303.3,858.9z
		"/>
	<path class="st6" d="M290.4,745.6l30.5,221.3c0,0,13.4,3.2,23.8,0.7c0,0,8.9-117.7,8.2-146.1c-0.7-28.4,6.4-76.1-1.6-81.4
		C343.3,734.8,290.4,745.6,290.4,745.6z"/>
	<path class="st0" d="M355.7,740c0.1,2.6-1.9,4.7-4.5,4.7l-48.1,0.7l-35.3,0.5c-1.7,0,3.6-13.2,3.7-99.5c0-19.3,29.8-40,30.4-40h0
		c0,2.8,4.4,7.9,11.1,8.3c8,0.5,17.8-3.5,17.8-8.1c0-0.1,0.9,0.9,2.4,3.1c4,5.8,12,20,17.2,44.7c4,19.5,2.5,45.5,5.4,79.1
		C356,736.2,355.6,738.3,355.7,740z"/>
	<path class="st3" d="M353.9,745c0,0-6.4,2.9-18.4,5.3c-8.9,1.9-20.9,3.5-35.6,3.6c-23.4,0.2-32.2-7.9-32.2-7.9
		c-1.7,0,3.6-13.2,3.7-99.5c0-19.3,29.8-40,30.4-40h0c0,0-0.8,25.7,7,33.2c0,0,10.9-8.4,25-32.3c4,5.8,11.4,22.5,16.5,47.2
		c1,5,1.7,10.5,2.2,16.4c1.4,17,1.1,37.8,3.2,62.8c0.2,2.4-0.1,4.6,0,6.3C355.8,742.6,356.5,745,353.9,745z"/>
	<path class="st4" d="M353.9,745c0,0-6.4,2.9-18.4,5.3c-3.8-5.7-8.5-16.1-9.2-32.4c-1.1-27.6,25.1-63.1,25.1-63.1l1,16.2
		c1.4,17,1.1,37.8,3.2,62.8c0.2,2.4-0.1,4.6,0,6.3C355.8,742.6,356.5,745,353.9,745z"/>
	<path class="st8" d="M356.4,695.4l-29.5-51c-1.6-2.8-5.3-3.8-8.1-2.2l-34.4,19.9c-2.8,1.6-3.8,5.3-2.2,8.1l29.5,51
		c1.6,2.8,5.3,3.8,8.1,2.2l34.4-19.9C357.1,701.9,358,698.3,356.4,695.4z"/>
	<path class="st1" d="M373.6,708.9c0,0-9.2,0.9-24.8-0.7c-11.3-1.2-26-3.6-43-8.7l5-8.5c0,0,20.4-0.9,35.3-3.1
		c3.7-0.5,7.1-1.2,9.7-1.9c3.2-0.9-12.9-41.7-21-65.7c-1.9-5.7-3.4-10.5-4.1-13.5c0,0,1.4,0.2,3.6,0.7c6.3,1.2,19.2,4.2,24.7,8.3
		C366.5,621.4,384.9,684.5,373.6,708.9z"/>
	<path class="st1" d="M311,691c0,0-6.9-6.5-9.6-6.5c-2.7,0-10.9,0.5-11.8,2.6c-2.1,5,3.2,9.5,5.4,10.3c2.2,0.9,7.7,1.9,10,2.1
		C307.4,699.9,313.2,698.6,311,691z"/>
	<path class="st3" d="M373.6,708.9c0,0-9.2,0.9-24.8-0.7c0.9-4.3,1.7-12.6-2.7-20.3c3.7-0.5,7.1-1.2,9.7-1.9
		c3.2-0.9-12.9-41.7-21-65.7c-0.7-7.8-1-13-1-13l0.6,0.1c6.3,1.2,19.2,4.2,24.7,8.3C366.5,621.4,384.9,684.5,373.6,708.9z"/>
	<path class="st4" d="M308.9,639.7c0,0,21.8-9.6,22.1-10.3c0.3-0.7-1.1-6.6-2.6-8.3c0,0,10.5,1,11.1-0.3c0.7-1.3,0.9-12.1,0.9-12.1
		s-4.1-4.3-9.5-4.7c0,0-4.7,11.7-6.5,15.2C319.7,628.4,308.9,639.7,308.9,639.7z"/>
	<path class="st4" d="M303.7,620.8c0,0,1.4,11.2,5.2,19c0,0-11.4-7.9-12.3-10.5c-1-2.6,2.7-7.6,2.7-7.6s-6.8-0.2-6.9-2.4
		c-0.2-2.3,2.1-11.2,2.1-11.2s5.6-4.2,7.2-4L303.7,620.8z"/>
	<path class="st5" d="M292.6,545c0,0,7.6-0.6,16.6-4.5c7.3-3.2,16.5,0.3,19.5,1.9c-0.1-0.5-0.3-1.1-0.7-1.8c0,0,1.3,0.9,1.5,2.3
		c0.1,0.1,0.2,0.2,0.2,0.2c0,0,1.5-0.3,2.5,0.2c0,0-0.7-0.1-0.9,0.3c0,0-0.1,0.1-0.1,0.1c11.4,5.5,12.5,23.5,8.8,27.7
		c-4.4,5-9.7,16.3-9.7,16.3s-1.9-2.7-1.1-7.1c0.8-4.4-3-4.4-7.8-6.4c-4.8-2-0.8-7.6-5-11c-4.2-3.4-19.7-1.4-19.5-4
		C291.1,557,292.6,545.5,292.6,545z"/>
	<path class="st9" d="M319.4,679c-1.6,0-2.9,1.3-2.9,2.9c0,1.6,1.3,2.9,2.9,2.9s2.9-1.3,2.9-2.9C322.3,680.3,321,679,319.4,679z"/>
	<g>
		<g>
			<path class="st10" d="M254.7,965.7c1.6,3.8-0.1,8.2-3.9,9.8s-8.2-0.1-9.8-3.9s0.1-8.2,3.9-9.8
				C248.7,960.2,253.1,961.9,254.7,965.7z"/>
			<path class="st11" d="M256.1,965.7c1.6,3.8-0.1,8.2-3.9,9.8c-3.8,1.6-8.2-0.1-9.8-3.9s0.1-8.2,3.9-9.8
				C250,960.2,254.4,961.9,256.1,965.7z"/>
		</g>
		<g>
			<path class="st10" d="M212,965.7c1.6,3.8-0.1,8.2-3.9,9.8c-3.8,1.6-8.2-0.1-9.8-3.9c-1.6-3.8,0.1-8.2,3.9-9.8
				C205.9,960.2,210.3,961.9,212,965.7z"/>
			<path class="st11" d="M213.3,965.7c1.6,3.8-0.1,8.2-3.9,9.8s-8.2-0.1-9.8-3.9s0.1-8.2,3.9-9.8
				C207.3,960.2,211.7,961.9,213.3,965.7z"/>
		</g>
		<g>
			<path class="st10" d="M260.6,841.5l-3.2-0.6c4.3-21.1,12.3-62.5,12-68.2c-0.2-3.5-1.3-6.1-3.2-7.6c-3.2-2.4-7.7-1.5-7.7-1.5
				l-0.2,0l-12.9,1.4c-15.3,0.4-16.5,13-16.5,13.6l0,0.2l-10.8,59.1l-3.2-0.6l10.8-59c0.1-0.7,0.5-4.3,2.9-8
				c2.4-3.7,7.2-8.2,16.7-8.4l12.6-1.3c0.8-0.2,6.2-1.1,10.3,2.1c2.8,2.1,4.3,5.5,4.5,10C273.1,780,261.1,839,260.6,841.5z"/>
		</g>
		<path class="st10" d="M284.9,837.9l-32.7-6.5l-6.4,128.1l-60.4,5.3l10.7,3.8c1.1,0.4,2.2,0.6,3.4,0.6l57.5-0.6c1,0,2,0,2.9,0h0.1
			l0,0c22.5-0.8,23.6-13,23.6-13s7.3-82.4,9-97.1C294.4,841.8,284.9,837.9,284.9,837.9z"/>
		<path class="st12" d="M270.3,854.1l-8.8,92.3c-0.4,3.7-1.7,7.2-3.7,10c-3.8,5.3-10,8.8-16.9,8.8l-30.3,0.2h-0.7l-19,0.1
			c-1.9,0-3.7-0.2-5.5-0.7c-0.4-0.1-0.8-0.2-1.2-0.4c-6.6-2.2-11.6-7.5-13.5-14.1c-0.8-2.8-1-5.8-0.5-8.9l13.7-88.3
			c1.5-9.4,9.1-16.6,18.6-17.5l5.3-0.5l1.3-0.1l0,0l1.1-0.1l17.9-1.7l2.2-0.2l17.3-1.7c2.7-0.3,5.3,0,7.8,0.7c0.2,0,0.3,0.1,0.5,0.1
			l1,0.3C265.3,835.7,271.3,844.3,270.3,854.1z"/>
		<path class="st13" d="M257.8,956.4c-3.8,5.3-10,8.8-16.9,8.8l-30.3,0.2h-0.7l-19,0.1c-1.9,0-3.7-0.2-5.5-0.7
			c-0.4-0.1-0.8-0.2-1.2-0.4c-6.6-2.2-14.1-10.1-14.2-18.6c0,0,64.1-0.8,77.5,1.2C254.3,948.2,256.4,953,257.8,956.4z"/>
		<g>
			<g>
				<path class="st10" d="M210.3,834.9c-0.1,0.1-14.2,8.6-16,16.2c-1.9,7.7-14.6,97.8-14.7,98.7c0,0.1-0.4,8.8,6.9,15.3l-1-0.2
					c-0.4-0.1-0.8-0.2-1.2-0.4c-6.8-6.7-5.9-14.5-5.8-14.8c0.5-3.7,12.8-91.1,14.7-98.8c1.7-6.8,11.6-13.6,14.8-15.7l1.3-0.1l0,0
					L210.3,834.9z"/>
			</g>
			<g>
				<path class="st10" d="M230.3,833c-2,1.4-9.7,7.2-11.4,18c-1.9,12.7-9.5,104.9-9.5,105.8v0.1l0,0.1c0,0-1.1,5,2,8.4h-0.8h-0.7
					c-3-3.6-1.8-8.1-1.6-8.7c0.2-2.9,7.6-93.2,9.5-105.8c1.4-9.3,7.2-15.1,10.3-17.7L230.3,833z"/>
			</g>
			<g>
				<path class="st10" d="M256.8,832.5c-0.1,0-3,1.7-5.5,4.5c-2.5,2.9-5.2,7.3-6.2,13.5c-1.9,12.7-7.9,104.6-8,105.5v0.1l0,0.1
					c0,0-0.3,5.7,2.8,9.1l-1.9,0c-2.4-3.1-2.2-8.7-2-9.3c0.2-2.9,6.1-92.9,8-105.5c1.8-11.8,9.7-17.3,11.3-18.3
					c0.2,0,0.3,0.1,0.5,0.1L256.8,832.5z"/>
			</g>
		</g>
	</g>
	<path class="st1" d="M252.3,754.2c0,0-10.2,3.7-10.5,11.3c-0.2,3.9,0,8.6,4.7,8c3.5-0.4,2-4.3,4.9-6.3c2.9-2,9-9,9.2-12.3
		C260.8,751.6,252.3,754.2,252.3,754.2z"/>
</g>
<g>
	<path class="st6" d="M571.3,712.6c-3.4,0-6.5-0.7-9.1-2c-32.8-16.3-2.3-128.1-2.3-128.1s1.5-5,7.5-7.7c3.1-1.4,7.4-2.1,13.4-1.1
		c17.3,2.9,20.6,10,21.3,14C602.7,591.7,618.3,712.3,571.3,712.6z"/>
	<path class="st5" d="M562.2,710.6c-32.8-16.3-2.3-128.1-2.3-128.1s1.5-5,7.5-7.7c12.7,3.3,15.3,9.3,16,12.9
		C584,591.4,597.4,695,562.2,710.6z"/>
	<g>
		<path class="st5" d="M629.7,941c0,0,7.5,6.9,6,11.8c-1.5,4.9-8.2,8.2-9.1,14.2c-0.9,6-4.6,9.3-7.8,9.3s-15.6,0-15.6,0
			s-2.4-4.2,3.4-5.5c5.8-1.3,8-8.3,7.7-14.9c-0.4-6.6,0.6-15.3,0.6-15.3l12.4-2.9L629.7,941z"/>
		<path class="st5" d="M538,959.9c0,0,1.8,14.6-1.5,16.2s-42.4,1.1-42.4,1.1s0-4.9,6.7-6c6.7-1.1,18.6-5.1,20.6-14
			C523.5,948.2,538,959.9,538,959.9z"/>
		<path class="st6" d="M502.6,737.3c0,0,2.2,27.6,4.8,60.8c3.5,45.1,7.8,100.5,8.2,111c0.7,18.2,3.6,47.4,3.6,47.4s6.9,6.9,20.8,4
			c0,0,12.3-41.6,15.9-85.6c0.1-0.7,0.1-1.4,0.2-2.2c3.3-44.8,8.4-139.2,8.4-139.2L502.6,737.3z"/>
		<path class="st7" d="M502.6,737.3c0,0,2.2,27.6,4.8,60.8l48.5,76.7c0.1-0.7,0.1-1.4,0.2-2.2c3.3-44.8,8.4-139.2,8.4-139.2
			L502.6,737.3z"/>
		<path class="st6" d="M512.7,740.6c0,0,39.9,100,66.1,147c26.2,47,34.4,60.1,34.4,60.1s15-6,16.4-10.1c0,0-10-90.7-27.6-112.9
			c-9.9-12.5-21.6-50-22.1-63.1s-3.5-39.1-3.5-39.1L512.7,740.6z"/>
	</g>
	<path class="st14" d="M477.3,709l-5.4,6.4c-1,1.3-2.4,2.1-4,2.7c-3.2,1.2-8.5,4.5-6.2,13.1c0,0,1.7,5,4.9,3.4
		c3.2-1.6,1.6-1.4,6.2-3.6c3.4-1.6,5.8-4.3,6.3-7.1c0.5-2.4,2.2-4.4,4.2-5.7l6.5-4.4L477.3,709z"/>
	<path class="st15" d="M533.2,586.2c-1.8-10.5-1.8-16.7-1.8-16.7l20.2-16.3c-0.7,22.4,13.6,33.2,13.6,33.2s-27,13.3-42.6,8.4
		C522.7,594.8,526.5,589.9,533.2,586.2z"/>
	<path class="st14" d="M526.6,569.2c0,0,25.8,4.3,28.2-11.8c2.4-16.1,7.4-26.3-9-29.8c-16.3-3.4-20.5,2.2-22.6,7.4
		C521.1,540.2,520,567.6,526.6,569.2z"/>
	<path class="st16" d="M475.1,719.3c-3.4-3.5-6-8.1-6-8.1s29.3-36.3,31.6-40.1c2.4-3.8,20.2-64.2,20.2-64.2l44.9-9.1
		c0,0-37.5,77.4-43.7,86.8c-10.3,15.6-41,38.8-41,38.8S477.8,722.1,475.1,719.3z"/>
	<path class="st8" d="M579.4,727.7c0.1,0.9-1,2-2.2,2.8c-1,0.7-2.1,1.2-2.8,1.5c-3.4,1.5-6.8,2.9-10.1,4.1c-8,3-15.8,5-24.4,5.8
		c-9.1,0.9-19.3,0-27-0.7c-4.4-0.5-7.9-0.9-10.1-0.9h-0.3c-0.6,0-1.2-0.2-1.7-0.6c-0.3-0.2-0.6-13.9-0.5-32.2c0-2.6,0.1-5.2,0.1-8
		c0-0.9,0-1.8,0.1-2.7v-0.3c0.1-8.6,0.3-17.7,0.7-26.7v-0.2c0.9-20,2.4-39.3,5.1-50c3.1-12.6,10.3-20.8,16.8-26.9l5.4-4.8
		c0.5,0.1,0.9,0.2,1.4,0.2c4.9,0.8,10.1,0.3,15.4-2.2c6.1-3,12.9-6.4,14-5.6c0.1,0.1,0.3,0.2,0.4,0.3c1.9,1.5,3.6,3.4,5.2,5.6
		c0.1,0.1,0.1,0.1,0.1,0.1c0.1,0,0.1,0,0.1,0c1.3,1.8,2.5,3.9,3.5,6.2c1.8,3.6,3.3,7.8,4.6,12.4c3.5,12.5,5.2,28.4,5.2,45.3
		c0,4.3-0.1,8.7-0.4,13.1c-0.1,1.3-0.1,2.5-0.2,3.7c-0.5,10.9-0.5,21.1-0.2,30v0.3c0.3,9,0.8,16.6,1.2,22.3
		C579.2,723.1,579.4,725.8,579.4,727.7z"/>
	<path class="st16" d="M579,719.6c-0.8-12-2.2-32.5-0.8-56.2c0.3-4.4,0.4-8.8,0.4-13.1c-5.3-12.9-9.7-22.3-9.7-22.3h-13.5
		C555.4,628,545.5,695.3,579,719.6z"/>
	<path class="st17" d="M554.8,555.8c0,0-2.6-0.4-2.2-4.1c0.4-3.6,0.4-8.4-2.5-7.5c-3,0.9-3.1,3.3-4.3,1.9c-1.2-1.4-1.2-7.2-10-7.6
		c-8.8-0.4-12.4,2.7-16.5,0.9c-4.1-1.8-4.3-8-4.3-8s1.2,2.2,2.9,2.9c0,0-6.8-9.3,1.1-15.8c7.9-6.4,16-2.2,20.6-1.9
		c10.1,0.6,16.6,1.2,19.9,7.8C562.6,531,561.3,549.4,554.8,555.8z"/>
	<g>
		<path class="st12" d="M688.6,962.7c-2.1,4.8,0.2,10.4,5.1,12.5c4.9,2.1,10.5-0.2,12.6-5c2.1-4.8-0.2-10.4-5.1-12.5
			C696.4,955.6,690.7,957.9,688.6,962.7z"/>
		<path class="st12" d="M619.7,962.8c-2.1,4.8,0.2,10.4,5.1,12.5c4.9,2.1,10.5-0.2,12.6-5c2.1-4.8-0.2-10.4-5.1-12.5
			C627.4,955.7,621.7,958,619.7,962.8z"/>
		<path class="st18" d="M708.5,961.5l-13.7,4.9c-1.4,0.5-2.8,0.7-4.3,0.7l-77.6-0.6l-8.5-13.9L708.5,961.5z"/>
		<g>
			<path class="st18" d="M664.2,808.2l-21.8-53.2l0-0.1c-0.1-0.5-3.5-11.9-23.1-14.4l-0.1,0l-16.1-3c-2.1-0.5-8.1-1.4-10.8,0.9
				c-1.2,1-1.7,2.6-1.5,4.9c0.4,4.5,14.9,39,24.5,61.1l-3.1,1.3c-2.5-5.7-24.2-55.7-24.8-62.1c-0.3-3.4,0.6-6,2.7-7.7
				c4.5-3.7,12.9-1.8,13.8-1.6l15.9,2.9c21,2.7,25.4,15.3,25.8,16.7l21.7,53.1L664.2,808.2z"/>
		</g>
		<path class="st18" d="M622.5,792.5l-41.9,8.4c0,0-12.2,4.9-9.7,26.1c2.2,18.6,11.7,123,11.7,123s2,21.7,48.9,15.3L622.5,792.5z"/>
		<path class="st3" d="M599.4,821.3l11.5,117c0.5,4.7,2.2,9.1,4.8,12.7c4.8,6.7,12.8,11.1,21.7,11.2l38.8,0.2h1l24.3,0.1
			c2.4,0,4.8-0.3,7-0.9c0.5-0.1,1-0.3,1.6-0.5c8.4-2.8,14.9-9.6,17.3-17.9c1-3.5,1.3-7.4,0.7-11.3l-17.8-111.9
			c-1.9-11.9-11.8-21.1-23.9-22.2l-6.9-0.6l-1.6-0.2l0,0l-1.4-0.1l-22.9-2.1l-2.8-0.3l-22.1-2.1c-3.5-0.3-6.8,0-10,0.9
			c-0.2,0.1-0.4,0.1-0.6,0.2l-1.3,0.4C605.7,798,598.2,808.9,599.4,821.3z"/>
		<path class="st19" d="M615.6,951c4.8,6.7,12.8,11.1,21.7,11.2l38.8,0.2h1l24.3,0.1c2.4,0,4.8-0.3,7-0.9c0.5-0.1,1-0.3,1.6-0.5
			c8.4-2.8,18.1-12.9,18.2-23.6c0,0-82.2-0.9-99.3,1.8C620.1,940.6,617.5,946.7,615.6,951z"/>
		<g>
			<g>
				<path class="st18" d="M676.4,796.8c0.2,0.1,18.2,10.9,20.6,20.5c2.4,9.8,18.9,124,19.1,125.1c0,0.1,0.5,11.1-8.8,19.4l1.2-0.3
					c0.5-0.1,1-0.3,1.6-0.5c8.7-8.6,7.5-18.4,7.4-18.8c-0.7-4.7-16.7-115.4-19.1-125.3c-2.2-8.6-14.9-17.2-19-19.8l-1.6-0.2l0,0
					L676.4,796.8z"/>
			</g>
			<g>
				<path class="st18" d="M650.6,794.4c2.6,1.7,12.5,9.1,14.6,22.9c2.5,16.1,12.4,133,12.5,134.1l0,0.1l0,0.1
					c0,0.1,1.4,6.4-2.6,10.7h1h1c3.8-4.6,2.3-10.2,2.1-11c-0.3-3.6-10-118.2-12.5-134.2c-1.8-11.8-9.2-19.2-13.3-22.4L650.6,794.4z"
					/>
			</g>
			<g>
				<path class="st18" d="M616.6,793.9c0.1,0,3.8,2.1,7.1,5.7c3.2,3.6,6.7,9.2,8,17c2.5,16.1,10.4,132.6,10.5,133.8v0.1l0,0.1
					c0,0.1,0.4,7.2-3.6,11.5l2.4,0c3-3.9,2.8-11,2.6-11.8c-0.3-3.7-8-117.8-10.5-133.8c-2.3-15-12.4-21.9-14.6-23.2
					c-0.2,0.1-0.4,0.1-0.6,0.2L616.6,793.9z"/>
			</g>
		</g>
	</g>
	<path class="st14" d="M600.9,713.2l5,11.8c0.6,1.4,0.6,3,0,4.5c-1.2,3.2-2.2,9.3,5.7,13.3c0,0,4.9,2,5.8-1.4c0.9-3.4,0-2.2,1.4-7
		c1.3-4.2,0.4-8.3-2.1-10.5c-0.9-0.7-1.3-1.9-1.4-3.1l-0.8-7.5L600.9,713.2z"/>
	<path class="st8" d="M611.9,725c-4.8,0.9-10.1,0.6-10.1,0.6s-14.4-44.4-16.2-48.5c-1.9-4.1-42.7-52.1-42.7-52.1l17-42.6
		c0,0,44.2,73.8,48.7,84.2c7.4,17.1,10,55.5,10,55.5S615.7,724.3,611.9,725z"/>
	<path class="st5" d="M577.8,697v0.3c-7.3-1.7-13.6-5.1-19-9.6c-10-8.2-16.8-20.2-21.1-32.7c-6.6-19.5-7.2-40.5-3.8-50.8
		c0.5-1.3,1-2.5,1.5-3.4c1.4-2.3,2.9-4.2,4.7-5.8c5.6-5.3,12.8-7.4,18-8.1c1.5-0.2,2.9-0.3,4.1-0.3c1.6-0.1,2.6,0,2.9,0
		c0.1,0,0.1,0,0.1,0c1.3,1.8,2.5,3.9,3.5,6.2c-1-0.1-2-0.1-2.9-0.1c-4.1-0.1-7.6,0.4-10.5,1.4c-5,1.6-8.6,4.6-11.1,8.1
		c-7.1,10-5.6,24.2-5.6,24.2c0.6,7.5,1.7,14.2,3.2,20.1c3.4,13.5,8.7,23.2,14.2,29.9c10.3,12.7,21.5,15.5,21.5,15.5L577.8,697z"/>
</g>
<g>
	<path class="st20" d="M877.9,670.4c-0.4-1-5.4-15.7-9.1-17.7c-3.8-2-10.7-4.2-12.3-3.4c-1.6,0.8-4.6,11.9,0,17.7
		c4.6,5.8,16.3,11.3,16.3,11.3L877.9,670.4z"/>
	<path class="st15" d="M934.9,714.1c-26.2,0.8-63.4-33.2-63.4-33.2s1.2-4.7,3-7.1c1.2-1.6,3.4-3.3,3.4-3.3
		c9.5,6.4,43.3,12.3,43.3,12.3C933.1,684.2,956.8,713.4,934.9,714.1z"/>
	<g>
		<path class="st6" d="M879.3,664.1l-11.7,3.9c-0.4,0.1-0.9-0.1-1.1-0.5l-9.5-28.7c-0.1-0.4,0.1-0.9,0.5-1.1l11.7-3.9
			c0.4-0.1,0.9,0.1,1.1,0.5l9.5,28.7C880,663.5,879.7,664,879.3,664.1z"/>
		<path class="st5" d="M876.1,665.1l-10.4,3.5c-0.8,0.3-1.6-0.2-1.9-0.9l-9.1-27.4c-0.3-0.8,0.2-1.6,0.9-1.9l10.4-3.5
			c0.8-0.3,1.6,0.2,1.9,0.9l9.1,27.4C877.3,664,876.9,664.9,876.1,665.1z"/>
	</g>
	<path class="st20" d="M855.5,650.9c0,0,3-6.2,8.4-3.7c5.5,2.5,3.1,11.8-0.1,15.1s-4.1,4.8-4.1,4.8L855.5,650.9z"/>
	<path class="st5" d="M957.8,971.1c-0.2,2.3-0.7,4.3-1.7,5h-40c0.1-1,1-4.5,6.4-5.2c5.1-0.7,13.4-3.2,17.5-8.5
		c1-1.3,1.7-2.7,2.1-4.3c2.1-8.3,15.5,2.9,15.5,2.9s0.2,1.5,0.2,3.5C957.9,966.4,958,968.9,957.8,971.1z"/>
	<path class="st5" d="M993.1,976h-41.7c0.6-1.3,2.4-4,6.3-5c0.4-0.1,0.9-0.2,1.3-0.3c4.5-0.6,11.4-2.6,15.8-6.6
		c1.8-1.7,3.2-3.7,3.8-6.2c2.1-8.3,15.5,2.9,15.5,2.9s0.1,1.3,0.2,3.2C994.7,968,994.7,974.1,993.1,976z"/>
	<path class="st4" d="M975.2,750.4c0,0,0,1.5-0.1,4.2c-0.4,17.5-1.9,85-3.3,122.7c-0.1,1.4-0.1,2.7-0.2,4c0,0.7-0.1,1.4-0.1,2
		c-0.8,18.2-3.3,36-5.8,50.3c-3.2,18.2-6.4,30.6-6.4,30.6c-12.1,2.5-20-2.1-20-2.1s-3.3-28.2-4.5-45.3c-0.4-5.5-2.4-24.5-4.9-47.5
		c-1.9-17.8-4.2-38-6.3-56.4c-0.1-1-0.2-2-0.3-2.9c-3.3-29.8-6.1-54-6.1-54l21.4-2L975.2,750.4z"/>
	<path class="st12" d="M965.8,933.6l-35.8-64.3c-1.9-17.8-4.2-38-6.3-56.4c-0.1-1-0.2-2-0.3-2.9c-3.3-29.8-6.1-54-6.1-54l21.4-2
		l36.4,0.7L965.8,933.6z"/>
	<path class="st4" d="M921.2,756c0,0,20,99.1,36.4,146.9c16.3,47.8,16.5,61.1,16.5,61.1s15,3.3,21.6-0.5c0,0,3.8-90.7-6.1-114.7
		c-6.5-15.9-11.5-49.8-9.8-62c1.7-12.2,3.3-36.7,3.3-36.7L921.2,756z"/>
	<path class="st20" d="M964.1,603.2l-16.6,15.9c-4.5-3.8-8-8.2-10.6-12.4c-2.6-4.1-4.4-8-5.6-10.7c-0.9-2,9.2-8.4,15-12.5
		c1.8-1.3,3.2-2.3,3.6-3c0,0,0.5,1.1,1.2,2.9c1.3,2.8,3.3,6.9,5.2,9.6C961.2,599.9,964.1,603.2,964.1,603.2z"/>
	<path class="st11" d="M977.7,761.3c-4.7,3.4-12.2,4.6-20.4,4.4c-9.6-0.2-20.2-2.1-28.7-4.7c-4.6-1.4-8.5-2.9-11.4-4.4
		c-12.7-6.6-10.9-15.4-10.6-48.4c0.3-33.7,21-77.2,24.8-84.5c6.6-13,36.4-8.2,36.4-8.2c6.5,3.1,8.9,13.6,9.5,27.2
		c0.7,15.1-0.7,34.3-0.7,51.7c0,14.4,2.7,27.1,4.7,37.7C983.9,746,985.2,756,977.7,761.3z"/>
	<path class="st15" d="M981.3,732.3c-5.7,12.1-17,25.7-24,33.5c-9.6-0.2-20.2-2.1-28.7-4.7c-3.6-8.6-5.1-22.8-1.8-46.4
		c2.5-18,20.9-90.3,20.9-90.3c14.8-1.9,24,6.1,29.7,18.5c0.7,15.1-0.7,34.3-0.7,51.7C976.6,709,979.4,721.7,981.3,732.3z"/>
	<path class="st15" d="M963.7,596.7c0,0,5.1,16.1,4.1,18.9c0,0-28.2,3.3-39.3,14.2c0,0,4.2-15.2,8.7-19.1
		C941.7,606.8,963.7,596.7,963.7,596.7z"/>
	<g>
		<path class="st21" d="M962.9,808.5c0.1-4.2-2-8.1-5.5-10.4c-5.7-3.7-15.4-8.1-28.8-7.3c-22.6,1.4-27.6,14-28.3,23.6
			c-0.7,9.7-8.2,23.6-10,34.4c-1.8,10.7-4.8,38.1,11.2,40.2c16,2.1,69.6,0,69.6,0s12.5-14.6,0-42.7
			C963.6,829.7,962.7,815.8,962.9,808.5z"/>
		<g>
			<g>
				<path class="st21" d="M955.9,794l-4.3-0.6c0,0,0.2-3-1.3-5.3c-1.2-1.7-3.1-2.7-5.7-2.9c-2.5-0.2-4.5,0.6-5.8,2.1
					c-1.8,2.2-1.9,5.6-1.9,5.7l-4.3,0c0-0.2,0-5.8,3.1-9.7c2.2-2.7,5.2-3.9,9-3.7c3.9,0.3,6.9,1.9,8.8,4.9
					C956.3,788.7,955.9,793.8,955.9,794z"/>
			</g>
			<g>
				<path class="st7" d="M981.9,889.1c0,0-53.6,2.2-69.6,0c-16-2.1-13-29.5-11.2-40.2c1.8-10.7,9.3-24.7,10-34.4
					c0.1-1.8,0.4-3.8,1-5.8c2.3-8.3,9.1-16.7,27.3-17.8c13.4-0.9,23.1,3.5,28.8,7.3c3.5,2.3,5.6,6.2,5.5,10.4c0,0.9-0.1,1.9-0.1,2.9
					c0.1,7.8,1.7,20.4,8.2,35C994.4,874.5,981.9,889.1,981.9,889.1z"/>
				<path class="st13" d="M908.3,852.8h32c0,0,2.1,23.4-13.1,24.1C911.9,877.6,907.8,867.9,908.3,852.8z"/>
				<path class="st22" d="M908.3,852.8c0,0,5.5,8.4,15.5,8.1c10-0.2,16.5-8.1,16.5-8.1H908.3z"/>
				<path class="st13" d="M946.8,852.8h32c0,0,2.1,23.4-13.1,24.1C950.3,877.6,946.3,867.9,946.8,852.8z"/>
				<path class="st22" d="M946.8,852.8c0,0,5.5,8.4,15.5,8.1c10-0.2,16.5-8.1,16.5-8.1H946.8z"/>
				<path class="st13" d="M973.8,808.5c0,0.9-0.1,1.9-0.1,2.9c-5.9,7.4-15.9,16.3-29.4,15.8c-22.9-0.7-32.1-18.6-32.1-18.6
					c2.3-8.3,9.1-16.7,27.3-17.8c13.4-0.9,23.1,3.5,28.8,7.3C971.8,800.4,973.9,804.3,973.8,808.5z"/>
				<path class="st10" d="M943.6,831.9L943.6,831.9c-1.4,0-2.6-1.2-2.6-2.6v-2.4c0-1.4,1.2-2.6,2.6-2.6l0,0c1.4,0,2.6,1.2,2.6,2.6
					v2.4C946.2,830.7,945,831.9,943.6,831.9z"/>
			</g>
		</g>
	</g>
	<path class="st20" d="M939.9,764.6c0,0-7.8,14.9-3.9,20.8s17.7-1.7,18.8-5c1.1-3.3,0-19.4,0-19.4L939.9,764.6z"/>
	<path class="st11" d="M973,647.6c0,0-2.9,41.1-2.8,58.2c0,17-13.5,62.3-13.5,62.3s-9,0.7-12.5,0.3c-4.1-0.5-6.5-2.4-6.5-2.4
		s3-53.5-2.7-74c-5.7-20.5-6-61.7-6-61.7s3.2-8.9,22-6.1C973.5,627.5,973,647.6,973,647.6z"/>
	<path class="st23" d="M951,583.5c0,0-3.4,18.3-14.2,23.3c-2.6-4.1-4.4-8-5.6-10.7c-0.9-2,9.2-8.4,15-12.5
		C949.1,583.5,951,583.5,951,583.5z"/>
	<path class="st20" d="M928,601.2c0,0,25.8-4.5,22.8-20.6c-3.1-16-1.8-27.4-18.4-25.2c-16.6,2.2-18.6,9-18.9,14.6
		C913.2,575.6,921.2,602,928,601.2z"/>
	<path class="st5" d="M952,585.5c0,0-2.2-2,4.6-9.9c3.5-4.1,6.7-7.9,3.7-15.8c-2.9-7.9-1.8-13.7-12.9-15.4c-11.1-1.7-11.4-7-17.4-6
		s-12.2,8.5-17.2,9.3c-5.1,0.8-12.5,25.6-1.3,26.6c0,0,4.5-1.4,6.8-4.5c2.4-3.1,12.9-9.3,15.6-6.4C936.5,566.4,946,584.8,952,585.5z
		"/>
</g>
<g id="man_1_">
	<path class="st2" d="M1525.8,747.6c0,0,16-41.3,17.4-44.9s9.5-60.3,9.5-60.3l34.2-13.7c0,0-19.3,72.9-23,82
		c-6.2,15.1-29.7,38.5-29.7,38.5c1.5,3-0.1,7-3.7,9.6c-3.6,2.6-2.2,2.2-4.7,4.1c-2.5,1.9-4.8-2.1-4.8-2.1
		C1516.1,751,1525.8,747.6,1525.8,747.6z"/>
	<path class="st5" d="M1582.3,631.3c0,0,16-8.4,38.8-10.1c12.3-0.9,23.6,6.7,27.4,18.3c0.2,0.7,0.4,1.4,0.6,2.1
		c5.4,19.3,2.4,77.8-15.6,93.1c-18.1,15.3-51.3,8.8-51.3,8.8L1582.3,631.3L1582.3,631.3z"/>
	<path class="st6" d="M1532.4,767.7c0,0,1.9,24.2,4.2,53.2c3.1,39.5,14.9,137.9,14.9,137.9s-2.5,3.9,9.6,1.4c0,0,14.9-33.5,17.9-72
		c0-0.6,0.1-1.3,0.1-1.9c2.9-39.2,7.3-121.9,7.3-121.9L1532.4,767.7z"/>
	<path class="st7" d="M1531.8,759.3c0,0,2.6,32.5,4.9,61.6l42.5,67.2c0-0.6,0.1-1.3,0.1-1.9c2.9-39.2,7.3-121.9,7.3-121.9
		L1531.8,759.3z"/>
	<path class="st6" d="M1541.3,753.2l73,209.9c0,0,7.6-1.4,9.3-4.8c0,0,2.1-88.8-10.3-110.2c-7-12.1-11.9-46.1-11-57.5
		c1.6-22.5-5.1-43.4-5.1-43.4L1541.3,753.2z"/>
	<g>
		<path class="st24" d="M1562.9,975.9h-5.9c-2-0.3-3.5-0.9-5.5-1.2c-3.1-0.4-4.5,0.9-4.8,1.2c0,0-0.1,0.1-0.1,0.1h-25.2
			c-0.6-0.9,0-3,0.6-4.6c0.4-1,1.3-1.9,2.4-2.2c2.7-0.8,7.9-1.5,12.8-5.8c2.7-2.5,13.1-9,13.1-9l0.1,0c0.2,0,1.3,0.3,6.1,4.3
			c2.4,2.1,6.6-2.9,6.6-2.9s0.8,0.7,1.4,1.9c0.5,0.9,0.8,2.3,0.5,3.9c-0.4,2.3,0.8,6.5,1.8,9.4c0.6,1.7,1.1,3,1.1,3
			S1568,975.3,1562.9,975.9z"/>
		<path class="st3" d="M1562.9,976h-5.9c-2-0.3-3.5-1-5.5-1.2c-3.1-0.4-4.5,0.9-4.8,1.2c0,0-0.1,0.1-0.1,0.1h-25.2
			c-0.6-0.9,0-3,0.6-4.6c0.8-0.7,1,3,1.4,3.5c0.4,0.6,20.6,0.2,21.8-0.6c1.2-0.8,4.7-2.3,9.5-1.2c4.2,1,10.5-1.6,12-2.3
			c0.6,1.7,1.1,3,1.1,3S1568,975.4,1562.9,976z"/>
	</g>
	<g>
		<path class="st24" d="M1623.6,975.9h-5.9c-2-0.3-3.5-0.9-5.5-1.2c-3.1-0.4-4.5,0.9-4.8,1.2c0,0-0.1,0.1-0.1,0.1H1582
			c-0.6-0.9,0-3,0.6-4.6c0.4-1,1.3-1.9,2.4-2.2c2.7-0.8,7.9-1.5,12.8-5.8c2.7-2.5,13.1-9,13.1-9l0.1,0c0.2,0,1.3,0.3,6.1,4.3
			c2.4,2.1,6.6-2.9,6.6-2.9s0.8,0.7,1.4,1.9c0.5,0.9,0.8,2.3,0.5,3.9c-0.4,2.3,0.8,6.5,1.8,9.4c0.6,1.7,1.1,3,1.1,3
			S1628.7,975.3,1623.6,975.9z"/>
		<path class="st3" d="M1623.6,976h-5.9c-2-0.3-3.5-1-5.5-1.2c-3.1-0.4-4.5,0.9-4.8,1.2c0,0-0.1,0.1-0.1,0.1H1582
			c-0.6-0.9,0-3,0.6-4.6c0.8-0.7,1,3,1.4,3.5c0.4,0.6,20.6,0.2,21.8-0.6c1.2-0.8,4.7-2.3,9.5-1.2c4.2,1,10.5-1.6,12-2.3
			c0.6,1.7,1.1,3,1.1,3S1628.7,975.4,1623.6,976z"/>
	</g>
	<path class="st1" d="M1586.1,628c0,0-23.6,11.6-37.3,7.3c0,0,3.4-4.3,9.2-7.5c-0.3-2-0.6-3.8-0.8-5.4c-0.8-5.9-0.8-9.2-0.8-9.2
		l14.5-11.7l3.3-2.6c-0.1,2.8,0.1,5.3,0.4,7.7c0,0.2,0.1,0.4,0.1,0.6C1577,621.2,1586.1,628,1586.1,628z"/>
	<path class="st25" d="M1599.6,751.8c0.1,1.5-3,3.2-4.4,3.8c-6,2.7-11.7,4.9-17.6,6.4c-4.1,1.1-8.3,1.9-12.7,2.3
		c-12.7,1.3-27.6-1.6-32.8-1.5c-0.6,0-1-0.2-1.4-0.5c-0.3-0.3-0.6-15.7-0.3-35.2c0-0.7,0-1.6,0.1-2.3v-0.3
		c0.1-7.6,0.3-15.6,0.7-23.5c0.7-17.5,2.1-34.4,4.5-43.8c2.7-11,9-18.3,14.8-23.6l4.1-4.1c0.3-0.3,0.6-0.4,1-0.3
		c4.6,0.8,9.6,0.8,14.4-1.6c5.4-2.7,11.3-5.5,12.2-4.9c11.2,8.4,16.8,33.2,16.7,61.3c0,0.9,0,1.8,0,2.7c-0.1,2.9-0.2,5.9-0.3,8.8
		c-1.2,20.8,0,38.8,0.7,49.3C1599.4,747.7,1599.6,750.1,1599.6,751.8z"/>
	<g>
		<path class="st21" d="M1539.9,714.6l-0.8,0.2c-1.4,0.4-2.9-0.4-3.3-1.8l0,0c-0.4-1.4,0.4-2.9,1.8-3.3l0.8-0.2
			c1.4-0.4,2.9,0.4,3.3,1.8l0,0C1542,712.7,1541.2,714.2,1539.9,714.6z"/>
		<path class="st0" d="M1547.4,713.2l7.3,24.6c0.5,1.7-0.5,3.4-2.1,3.9l-9.3,2.8c-1.7,0.5-3.4-0.5-3.9-2.1l-7.3-24.6
			c-0.5-1.7,0.5-3.4,2.1-3.9l9.3-2.8C1545.1,710.6,1546.9,711.6,1547.4,713.2z"/>
		<path class="st25" d="M1547.7,714.2l7,23.6c0.5,1.7-0.5,3.4-2.1,3.9l-9.3,2.8c-1.7,0.5-3.4-0.5-3.9-2.1l-6.9-23.1
			c1.4-0.5,4.6-1.4,6.8-1.3C1541.5,718.2,1545.7,715.6,1547.7,714.2z"/>
		
			<rect x="1534.9" y="718.3" transform="matrix(0.9586 -0.2847 0.2847 0.9586 -142.9461 469.3392)" class="st21" width="16.1" height="16.1"/>
	</g>
	<path class="st3" d="M1599.6,751.8c0.1,1.5-3,3.2-4.4,3.8c-6,2.7-11.7,4.9-17.6,6.4c-16.3-52.8,3.2-103.9,3.2-103.9l17.9,28.6
		c-0.1,2.9-0.2,5.9-0.3,8.8c-1.2,20.8,0,38.8,0.7,49.3C1599.4,747.7,1599.6,750.1,1599.6,751.8z"/>
	<path class="st25" d="M1574.5,666.3c5.9-3.5,17.6-9.8,27.3-10.8c2.1-0.2,3.4-2.4,2.6-4.4c-3.1-7-11.7-21.7-22.3-28.5
		c-1-0.6-1.7-0.1-2.8,0.5c-3.9,2.2-12.3,8.7-12.8,16.3c-0.5,6.8,1.9,18.5,3.3,24.9C1570.2,666.4,1572.6,667.4,1574.5,666.3z"/>
	<path class="st2" d="M1574.8,606.9c0,0,0,0.1-0.1,0.2c-0.9,1.6-7.2,12.2-17.5,15.2c-0.8-5.9-0.8-9.2-0.8-9.2l14.5-11.7
		c1.9,2.2,3.2,4.3,3.7,5.1C1574.7,606.8,1574.8,606.9,1574.8,606.9z"/>
	<path class="st1" d="M1552.2,612.8c0,0,22.6,3.7,24.7-10.3c2.1-14.1,6.5-23.1-7.9-26.1c-14.3-3-17.9,2-19.8,6.5
		C1547.4,587.4,1546.4,611.5,1552.2,612.8z"/>
	<path class="st26" d="M1585,574.1c0.2-0.9,0.7-1.9,1.9-2.5c0,0-1.6,0.2-2.5,1.2c-0.1-1.3-0.5-3.2-1.2-4.5c0,0,0,1.8-0.2,3.3
		c-9.8-9.9-32.6,0.9-37.3,3.1c-8.2,3.8-3.6,10.8,1.7,12.6c5.3,1.7,18.4-3.8,18.6-0.2c0.2,3.6,2.6,7.6,4,7.7c1.4,0.1,2.4-2.8,4.1-0.9
		s-1.3,4.9-1.3,4.9c-1.8,3.3,1.9,8.3,1.9,8.3s1.2,0.7,3.3-1.7C1580,603.2,1594.7,588.5,1585,574.1z"/>
	<g>
		<path class="st5" d="M1599.2,699.3l0.7-4.3c-10.5-1.7-18.9-6.7-25.2-14.9c-4.7-6.2-8-14.3-9.1-22.3c-2.1-15.4,2-24.2,12.4-26.9
			c9.3-2.4,20.1,4.9,20.3,5l2.5-3.6c-0.5-0.4-12.5-8.5-23.8-5.6c-8.8,2.2-18.6,9.5-15.7,31.7c0.7,5.1,2.9,15.1,9.9,24.3
			C1578.2,691.9,1587.6,697.4,1599.2,699.3z"/>
	</g>
	<path class="st1" d="M1544.3,724.4c4.2-1,12.2,0.3,13.8,0.6c0,0,28.9-20.3,33.9-25.3c3.7-3.7-11-20.2-18.7-33
		c0.4-0.1,0.8-0.2,1.2-0.4c5.9-3.5,17.6-9.8,27.3-10.8c0.4,0,0.7-0.1,1-0.3c6.6,14.3,13.5,33.1,14.9,51.9c0,0-24.4,23.8-55.2,28
		c0,0-18.4,4.7-21.3,4.5c-2.9-0.2-4.1-4.1-4.5-6.2C1536.3,731.2,1539.6,725.6,1544.3,724.4z"/>
</g>
<g>
	<g>
		<g>
			<path class="st7" d="M1144.6,919.8h-22.2c0,0-4.9,0.8-6.9,15.6c-2,14.8-7.8,41.1-7.8,41.1h29.4L1144.6,919.8z"/>
			<path class="st12" d="M1129.5,976.5c2.6-0.3,119.6,0,119.6,0s4.7-0.7,0.5-20.7c-0.2-1-0.3-2.1-0.4-3.2c-0.4-5.5,0.6-12,0.3-17.2
				c0,0,1.5-16.8-20.9-15.4c-22.4,1.4-63.3,1.5-78.7-0.1c-15.4-1.6-18.9,10.4-18.2,17.9c0.1,1.2,0.1,3-0.1,5.2
				C1130.8,954.6,1127.4,976.8,1129.5,976.5z"/>
		</g>
		<g>
			<path class="st12" d="M1164.3,926.8c0.1-0.1,7.8-12.5,20.5-13.3c12.9-0.8,25.7,11.9,25.8,12l2.8-2.8c-0.6-0.6-14.2-14-28.8-13.1
				c-14.8,0.9-23.2,14.6-23.6,15.2L1164.3,926.8z"/>
		</g>
	</g>
	<g>
		<path class="st27" d="M1265.9,895.6c0.1-4.2-2-8.1-5.5-10.4c-5.7-3.7-15.4-8.1-28.8-7.3c-22.6,1.4-27.6,14-28.3,23.6
			c-0.7,9.7-8.2,23.6-10,34.4c-1.8,10.7-4.8,38.1,11.2,40.2c16,2.1,69.6,0,69.6,0s12.5-14.6,0-42.7
			C1266.6,916.8,1265.7,902.9,1265.9,895.6z"/>
		<g>
			<g>
				<path class="st8" d="M1276.8,895.6c0.1-4.2-2-8.1-5.5-10.4c-5.7-3.7-15.4-8.1-28.8-7.3c-22.6,1.4-27.6,14-28.3,23.6
					c-0.7,9.7-8.2,23.6-10,34.4c-1.8,10.7-4.8,38.1,11.2,40.2c16,2.1,69.4,0.3,69.4,0.3s12.6-14.9,0.2-43.1
					C1277.5,916.8,1276.6,902.9,1276.8,895.6z"/>
				<path class="st15" d="M1212.3,939.9h32c0,0,2.1,23.4-13.1,24.1C1215.9,964.8,1211.8,955,1212.3,939.9z"/>
				<path class="st16" d="M1212.3,939.9c0,0,5.5,8.4,15.5,8.1c10-0.2,16.5-8.1,16.5-8.1H1212.3z"/>
				<path class="st15" d="M1250.8,939.9h32c0,0,2.1,23.4-13.1,24.1C1254.3,964.8,1250.3,955,1250.8,939.9z"/>
				<path class="st16" d="M1250.8,939.9c0,0,5.5,8.4,15.5,8.1c10-0.2,16.5-8.1,16.5-8.1H1250.8z"/>
				<path class="st15" d="M1255.6,921.8h-17c-7.9,0-14.3-6.4-14.3-14.3l0,0c0-7.9,6.4-14.3,14.3-14.3h17c7.9,0,14.3,6.4,14.3,14.3
					l0,0C1269.9,915.4,1263.4,921.8,1255.6,921.8z"/>
				<path class="st16" d="M1225.5,892c0,0,7.6,11.6,21.5,11.3c13.9-0.3,22.8-11.3,22.8-11.3H1225.5z"/>
			</g>
			<g>
				<path class="st8" d="M1259,881.2l-4.3-0.4c0,0,0.2-2.3-1.3-4c-1.2-1.3-3.1-2.1-5.7-2.2c-2.5-0.1-4.5,0.4-5.8,1.6
					c-1.8,1.7-1.9,4.3-1.9,4.3l-4.3,0c0-0.2,0-4.4,3.1-7.4c2.2-2.1,5.2-3,9-2.9c3.9,0.2,6.9,1.4,8.8,3.7
					C1259.3,877.1,1259,881,1259,881.2z"/>
			</g>
		</g>
	</g>
	<g>
		<path class="st28" d="M1332.7,959.6c0,0-1,16.7-4.3,16.9c-0.4,0-16.4,0-16.4,0h-20.6c0,0,0.4-5,6.3-6.1c6-1,15.9-5.2,19.5-13.1
			C1321.1,949.1,1332.7,959.6,1332.7,959.6z"/>
		<path class="st29" d="M1333.9,960.7c0,0-6.2,2.1-11,2.1c-5.4,0-10.3-1.5-10.3-1.5s-1.2-11.3-7.6-36.1c-3.4-13-8.2-29.8-15-50.5
			c-18.9-57.5-24.6-91.1-25.2-94.3c0-0.2,0-0.3,0-0.3l0.1,0l58.1-25.5c0,0-7.2,79.2,2,109.6c1.3,4.3,2.4,9.2,3.3,14.6
			C1334,911.8,1333.9,960.7,1333.9,960.7z"/>
		<path class="st7" d="M1328.2,878.8l-23.3,46.4c-3.4-13-8.2-29.8-15-50.5c-18.9-57.5-24.6-91.1-25.2-94.3c0-0.1,0-0.2,0-0.3
			l58.1-25.5c0,0-7.2,79.2,2,109.6C1326.2,868.5,1327.3,873.4,1328.2,878.8z"/>
		<path class="st28" d="M1287.3,959.6c0,0-1,16.7-4.3,16.9c-0.4,0-37.2,0.7-37.2,0.7s0.5-5.7,6.5-6.7c6-1,15.9-5.2,19.5-13.1
			C1275.7,949.1,1287.3,959.6,1287.3,959.6z"/>
		<path class="st29" d="M1254.4,756.5c0,0-0.7,51.3,8.1,114.4c8.9,63,5.9,89.8,5.9,89.8s6.1,2,8.6,2.2c6.3,0.5,12.7-1.5,12.7-1.5
			s12.7-63.1,9.1-94.6c-3.6-31.6,17.4-108.3,17.4-108.3L1254.4,756.5z"/>
		<path class="st16" d="M1300.8,634.3c0,0,30,30.5,31.5,42.3c1.5,11.8-14.5,30.4-14.5,30.4L1300.8,634.3z"/>
		<path class="st1" d="M1295.6,636.3l-11.3,7.4l-16.4-3.1c0.2-1.3,1.3-6.8,2.3-11.8c0.1-0.3,0.1-0.6,0.2-0.9
			c0.8-4.2,1.6-7.8,1.6-7.8l15.3-6.7l5.7-2.5c0,0.1-0.4,4.7-0.5,5.4C1291.3,628.2,1295.6,636.3,1295.6,636.3z"/>
		<path class="st16" d="M1269.4,632.7c0.3-0.1,22.4-6,24.5-5.3c2.1,0.7,3.4,4.8,3.4,4.8l-31.7,7.2
			C1265.5,639.4,1265.4,634.4,1269.4,632.7z"/>
		<path class="st8" d="M1324.3,762.8c-3.3,15-58,16.8-72.1,3.2c-1.6-1.6-1.7-8.8-1.1-18.5c1.2-19,5-47.7,5.1-62.3
			c0.1-7.1,1-14.3,2.3-20.8c2.7-14,6.9-24.9,6.9-24.9s26.7-8.6,31.7-7.2C1321.4,639.3,1327.6,747.8,1324.3,762.8z"/>
		<path class="st16" d="M1251.1,747.5c1.2-19,5-47.7,5.1-62.3c0.1-7.1,1-14.3,2.3-20.8l16.1-2.8
			C1274.7,661.5,1290.4,725.7,1251.1,747.5z"/>
		<path class="st1" d="M1259.8,720.9c0,0,1.1,2.6-1.2,4.4c-2.3,1.8-3.8,4.6-3.3,6.7c0.5,2.1,5.6,5.5,7.3,4.9c1.8-0.6,4.9-2,4.9-4.4
			c0-1.2,2.4-9.6-1.9-12.9C1261.4,716.3,1259.8,720.9,1259.8,720.9z"/>
		<path class="st8" d="M1277.9,636.3c0,0-15.7,2.2-28.2,20.6c-12.5,18.4-20.7,32.1-18.4,38.8c2.3,6.6,23.3,29.7,26.9,29.7
			c3.6,0,9.5-2.6,9.8-8.6c0,0-14-22.2-11.1-25.5c1.2-1.4,18.4-15.9,21-9.3C1282,692.8,1277.9,636.3,1277.9,636.3z"/>
		<path class="st30" d="M1291.3,616.5c-3.4,5.7-15.9,10.6-21.1,12.4c0.1-0.3,0.1-0.6,0.2-0.9c0.8-4.2,1.6-7.8,1.6-7.8l15.3-6.7
			C1290.6,613.4,1292.6,614.2,1291.3,616.5z"/>
		<path class="st1" d="M1266.1,619.3c0,0,24.6,7.7,29.2-7.7c4.6-15.4,10.8-24.8-4.8-30.4c-15.5-5.6-20.4-0.6-23.1,4.2
			C1264.7,590.2,1259.8,616.9,1266.1,619.3z"/>
		<path class="st17" d="M1268.4,583.9c0,0,1.6,17.9,5.3,17.2c3.7-0.8,7.1-1.4,6.5,4.1c-0.5,5.4-5.7,11.7,5.7,12.6
			c11.4,1,27.9-28.5,24.7-34.1C1301.7,567.5,1255.3,564.2,1268.4,583.9z"/>
	</g>
</g>
<g>
	<path class="st5" d="M731.3,761.4c0,0,18.3-8.3,32.1-1c13.8,7.3,5.4,67.4-14.4,73.3l0,0C749,833.6,706.5,885.3,731.3,761.4z"/>
	<path class="st31" d="M698.9,768.4c-0.9-7,0.8-19.8,0.8-19.8s-6.2-0.3-9.7,7.9c-7.2,17-4.1,53.6-3.6,58.9c0,0-2.5,10.4,1.2,28.4
		c-0.5,1.3-1.3,2.9-1.7,3.6c-0.1,0.1-0.1,0.2-0.2,0.2l0,0c-0.5,0.7-0.5,1.6,0,2.3l2.4,3.8c0.2,0.4,0.5,0.6,0.9,0.8l0,0l0,0
		c0.1,0.1,0.2,0.1,0.4,0.1l3,0.7l0.3-10.1c0,0,0,0,0,0C693.6,835.4,699.7,774.8,698.9,768.4z M691.3,846L691.3,846L691.3,846
		C691.3,846,691.3,846,691.3,846z"/>
	<path class="st5" d="M751.6,967.5l-2.3,8.5h-19.9C729.4,976,723.4,965.2,751.6,967.5z"/>
	<path class="st5" d="M709,967.5l-2.3,8.5h-19.9C686.8,976,680.8,965.2,709,967.5z"/>
	<path class="st17" d="M747.7,711.5c1.3-5.6-0.3-9.8-2.9-13.8c-2.5-3.8-6-4-9.3-7.3c-3.2-3.1-9-5.1-13.7-5.1
		c-14.9,0-27.9,9.2-24.9,24.7c0.9,4.9,0.1,8.8,4.1,14.6c5,7.2,11.1,13,20.8,13c5.2,0,9.7-1.2,13.7-5c2.2-2.1,5.3-2.3,7.2-4.5
		C746.6,723.6,746.3,717.7,747.7,711.5z"/>
	<path class="st31" d="M711.5,729.9c0,0,3.3,12.7-3.4,18.1l18.6,9.5l2.5-12.3c0,0-3.5-9.6-2.6-23L711.5,729.9z"/>
	<path class="st32" d="M711,736.3c0,0,19.1,2.3,19.5-11.1c0.4-13.4-7.5-22.1-12.9-22c-10.6,0.2-12.3,4.5-13.5,8.9
		C702.8,716.5,702.2,735.4,711,736.3z"/>
	<path class="st7" d="M692.8,837.9l37.7,3.1c0,0,4.4,66.1-20.3,127.4L689,968L692.8,837.9z"/>
	<path class="st6" d="M751.3,841.7c0,0,11.6,45.1,2.2,127.3h-25.6l-12.3-106.8c-0.5-3.2-6.4-7.6-6.4-7.6l-0.2-12.2L751.3,841.7z"/>
	<path class="st30" d="M752.1,774.9l2.5-20.2c-0.4-0.5-0.7-1-1-1.4c-4.3-5.3-21-7.6-24.4-8c0,0-0.1,0.3-0.6,0.8
		c-3.1,2.8-7.2,5.7-12.7,5c-4.7-0.6-5.5-3.1-5.3-5.8c-9.9,1.6-15.5,4.8-15.5,4.8c-10,3.8-12.1,37.1-12.1,37.1
		c1.3-0.4,8,0.8,11.1,1.3l-1.2,49.5c24,10.5,58.5,3.7,58.5,3.7l-0.1-0.3l-2.3-39.6l2.2-18.1L752.1,774.9z"/>
	<path class="st25" d="M716.1,728.6c0,0-0.4,1.7-4.6,1.4c0,0-3.5-0.3-3.4-2.1C708.1,727.8,711.5,726.6,716.1,728.6z"/>
	<path class="st11" d="M736.8,840c1.6,2,9.7,2.8,14.5,1.3l-2.3-39.5l3.2-26.9l-3.1-1.5c0,0-13.7,11-12.1,19.8
		C738.5,802,734.7,837.4,736.8,840z"/>
	<path class="st30" d="M766.3,776.9c0,0-10.6,4-15.2,6.8c-0.9,0.5-1.5,1-1.9,1.4l-14.5-28.8l-2.8-5.5l-2.5-5.1l-0.2-0.5
		c0,0,0.2,0,0.6,0.1c1.4,0.2,4.9,0.6,9,1.5c2.5,0.6,5.3,1.3,7.8,2.2h0.1c3,1.1,5.5,2.5,6.9,4.2c0.4,0.5,0.7,0.9,1,1.4
		C759.5,761.6,766.3,776.9,766.3,776.9z"/>
	<path class="st6" d="M750.6,830.4c0,0-51.6-55.2-18.7-79.6c1.9-1.5,4.2-2.8,6.8-4c2.5,0.6,5.3,1.3,7.8,2.2
		c-2.7,0.7-7.8,2.7-11.8,7.2c-8,8.9-11.7,27.8,15.5,67.2L750.6,830.4z"/>
	<path class="st17" d="M712.9,703.3c0,0,16.3,0,12.6,11.2c-2.4,7.1,5.5,8.1,5.5,8.1l3.8-11.3l-2.4-8.8L712.9,703.3z"/>
	<path class="st31" d="M765.8,777c-5,1.6-12.6,4.9-15,7.2c2.6,5.9,4,9.8,4,9.8c-1.9-0.8-11.9-1.7-17-2c-0.6,0-5.3-1.6-5.3-1.6
		s0-8.1-9.3-8.7c0,0-3.8,0-3.1,2.6c0.8,2.6,0.9,1.5,1.9,5.2c1,3.7,3.7,6.6,6.6,6.7c13.7,11.5,32.5,11.6,38.2,11.3
		c1,0,1.9-0.7,2.1-1.7C771.1,796.5,769.6,786.8,765.8,777z"/>
</g>
<path class="st5" d="M1836.6,979.3h-1714c-0.9,0-1.7-0.7-1.7-1.7l0,0c0-0.9,0.7-1.7,1.7-1.7h1714c0.9,0,1.7,0.7,1.7,1.7l0,0
	C1838.2,978.6,1837.5,979.3,1836.6,979.3z"/>
</svg>
