<?xml version="1.0" encoding="utf-8"?>
<!-- Generator: Adobe Illustrator 24.0.0, SVG Export Plug-In . SVG Version: 6.00 Build 0)  -->
<svg version="1.1" id="Layer_1" xmlns="http://www.w3.org/2000/svg" xmlns:xlink="http://www.w3.org/1999/xlink" x="0px" y="0px"
	 viewBox="0 0 800.01 788.29" style="enable-background:new 0 0 800.01 788.29;" xml:space="preserve">
<style type="text/css">
	.st0{fill:#D14D34;}
</style>
<g>
	<g>
		<g>
			<polygon class="st0" points="486.62,203.43 473.78,203.43 473.78,19.72 435.22,19.72 411.96,86.04 380.76,21.89 338.15,21.89 
				338.15,9.05 388.79,9.05 410.04,52.74 426.11,6.88 486.62,6.88 			"/>
		</g>
		<g>
			<polygon class="st0" points="324.9,202.88 312.06,202.88 312.06,53.32 347.62,53.32 347.62,66.16 324.9,66.16 			"/>
		</g>
		<g>
			<path class="st0" d="M358.91,51.18c4.43,0,8.01,3.59,8.01,8.01s-3.59,8.01-8.01,8.01s-8.01-3.59-8.01-8.01
				S354.49,51.18,358.91,51.18 M358.91,42.62c-9.14,0-16.57,7.43-16.57,16.57s7.43,16.57,16.57,16.57c9.14,0,16.57-7.43,16.57-16.57
				S368.05,42.62,358.91,42.62L358.91,42.62z"/>
		</g>
		<g>
			<path class="st0" d="M327.77,8.56c4.53,0,8.19,3.67,8.19,8.19c0,4.53-3.67,8.2-8.19,8.2s-8.2-3.67-8.2-8.2
				C319.58,12.23,323.24,8.56,327.77,8.56 M327.77,0c-9.24,0-16.76,7.52-16.76,16.75s7.52,16.75,16.76,16.75
				c9.24,0,16.75-7.52,16.75-16.75S337.01,0,327.77,0L327.77,0z"/>
		</g>
		<g>
			<path class="st0" d="M481.11,207.25c4.43,0,8.01,3.59,8.01,8.01s-3.59,8.01-8.01,8.01s-8.01-3.59-8.01-8.01
				S476.69,207.25,481.11,207.25 M481.11,198.69c-9.14,0-16.57,7.43-16.57,16.57s7.43,16.57,16.57,16.57s16.57-7.43,16.57-16.57
				S490.25,198.69,481.11,198.69L481.11,198.69z"/>
		</g>
		<g>
			<path class="st0" d="M319.76,206.7c4.43,0,8.01,3.59,8.01,8.01s-3.59,8.01-8.01,8.01s-8.01-3.59-8.01-8.01
				S315.33,206.7,319.76,206.7 M319.76,198.14c-9.14,0-16.57,7.43-16.57,16.57c0,9.14,7.43,16.57,16.57,16.57
				c9.14,0,16.57-7.43,16.57-16.57C336.33,205.58,328.9,198.14,319.76,198.14L319.76,198.14z"/>
		</g>
	</g>
	<g>
		<g>
			<polygon class="st0" points="582.3,289.85 571.88,282.36 679.19,133.23 647.88,110.71 590.27,150.95 602.4,80.67 567.82,55.8 
				575.33,45.36 616.43,74.96 608.16,122.8 648,94.97 697.11,130.32 			"/>
		</g>
		<g>
			<polygon class="st0" points="451.35,194.94 440.94,187.45 528.3,66.04 557.16,86.81 549.66,97.24 531.22,83.97 			"/>
		</g>
		<g>
			<path class="st0" d="M562.9,90.17c1.62,0,3.26,0.49,4.67,1.51c3.59,2.58,4.41,7.59,1.82,11.18c-1.57,2.18-4.02,3.33-6.51,3.33
				c-1.62,0-3.26-0.49-4.67-1.51c-3.59-2.59-4.41-7.59-1.82-11.18C557.96,91.32,560.41,90.17,562.9,90.17 M562.9,81.61L562.9,81.61
				c-5.32,0-10.35,2.58-13.46,6.89c-2.59,3.59-3.62,7.98-2.9,12.35c0.71,4.37,3.08,8.2,6.68,10.78c2.84,2.04,6.18,3.12,9.67,3.12
				c5.32,0,10.35-2.58,13.46-6.89c5.34-7.42,3.65-17.8-3.77-23.13C569.74,82.69,566.39,81.61,562.9,81.61L562.9,81.61z"/>
		</g>
		<g>
			<path class="st0" d="M562.41,37.35c1.66,0,3.33,0.5,4.78,1.54c3.67,2.64,4.51,7.76,1.86,11.44c-1.6,2.23-4.11,3.41-6.66,3.41
				c-1.66,0-3.33-0.5-4.78-1.54c-3.67-2.64-4.51-7.77-1.86-11.44C557.35,38.54,559.87,37.35,562.41,37.35 M562.41,28.79
				L562.41,28.79c-5.38,0-10.47,2.61-13.61,6.97c-5.4,7.5-3.69,17.99,3.81,23.39c2.87,2.06,6.25,3.16,9.78,3.16
				c5.38,0,10.47-2.61,13.61-6.97c5.4-7.5,3.69-17.99-3.81-23.39C569.32,29.88,565.94,28.79,562.41,28.79L562.41,28.79z"/>
		</g>
		<g>
			<path class="st0" d="M570.92,288.23c1.62,0,3.26,0.49,4.67,1.51c3.59,2.58,4.41,7.59,1.82,11.18c-1.57,2.18-4.02,3.33-6.51,3.33
				c-1.62,0-3.26-0.49-4.67-1.51c-3.59-2.59-4.41-7.59-1.82-11.18C565.98,289.39,568.43,288.23,570.92,288.23 M570.92,279.67
				L570.92,279.67c-5.32,0-10.35,2.58-13.46,6.89c-2.58,3.59-3.62,7.98-2.9,12.35s3.08,8.2,6.68,10.78
				c2.84,2.04,6.18,3.12,9.67,3.12c5.32,0,10.35-2.58,13.46-6.89c2.59-3.59,3.62-7.98,2.9-12.35c-0.71-4.37-3.08-8.2-6.68-10.79
				C577.76,280.75,574.41,279.67,570.92,279.67L570.92,279.67z"/>
		</g>
		<g>
			<path class="st0" d="M440.27,193.53c1.62,0,3.26,0.49,4.67,1.51c3.59,2.59,4.41,7.59,1.82,11.18c-1.57,2.18-4.02,3.33-6.51,3.33
				c-1.62,0-3.26-0.49-4.67-1.51c-3.59-2.59-4.41-7.59-1.82-11.18C435.33,194.69,437.78,193.53,440.27,193.53 M440.27,184.97
				L440.27,184.97c-5.32,0-10.35,2.58-13.46,6.89c-2.59,3.59-3.62,7.98-2.9,12.35c0.71,4.37,3.08,8.2,6.68,10.78
				c2.84,2.04,6.18,3.12,9.68,3.12c5.32,0,10.35-2.58,13.46-6.89c2.59-3.59,3.62-7.98,2.9-12.35c-0.71-4.37-3.08-8.2-6.68-10.78
				C447.11,186.05,443.76,184.97,440.27,184.97L440.27,184.97z"/>
		</g>
	</g>
	<g>
		<g>
			<polygon class="st0" points="609.48,415.88 605.4,403.71 779.6,345.37 767.36,308.79 697.07,307.8 747.98,257.85 734.46,217.46 
				746.63,213.38 762.71,261.39 728.04,295.4 776.63,296.08 795.85,353.46 			"/>
		</g>
		<g>
			<polygon class="st0" points="558.63,262.36 554.55,250.19 696.37,202.7 707.66,236.4 695.49,240.48 688.28,218.95 			"/>
		</g>
		<g>
			<path class="st0" d="M705.69,240.96c3.35,0,6.47,2.12,7.6,5.47c1.41,4.2-0.86,8.74-5.05,10.14c-0.84,0.28-1.7,0.42-2.55,0.42
				c-3.35,0-6.47-2.12-7.6-5.47c-1.41-4.2,0.86-8.74,5.05-10.14C703.98,241.1,704.84,240.96,705.69,240.96 M705.69,232.4
				L705.69,232.4c-1.79,0-3.56,0.29-5.26,0.86c-4.2,1.41-7.6,4.36-9.57,8.32c-1.97,3.96-2.29,8.46-0.88,12.66
				c2.27,6.76,8.58,11.31,15.71,11.31c1.79,0,3.56-0.29,5.26-0.86c4.2-1.41,7.6-4.36,9.57-8.32c1.97-3.96,2.29-8.46,0.88-12.66
				C719.13,236.95,712.82,232.4,705.69,232.4L705.69,232.4z"/>
		</g>
		<g>
			<path class="st0" d="M736.03,197.77c3.43,0,6.62,2.17,7.77,5.59c1.44,4.29-0.88,8.94-5.17,10.37c-0.86,0.29-1.74,0.43-2.6,0.43
				c-3.43,0-6.62-2.17-7.77-5.59c-1.44-4.29,0.88-8.94,5.17-10.37C734.29,197.91,735.17,197.77,736.03,197.77 M736.03,189.22
				c-1.81,0-3.6,0.29-5.32,0.87c-8.76,2.93-13.5,12.45-10.57,21.21c2.29,6.84,8.68,11.44,15.89,11.44c1.81,0,3.6-0.29,5.32-0.87
				c8.76-2.94,13.5-12.45,10.57-21.21C749.63,193.81,743.24,189.22,736.03,189.22L736.03,189.22z"/>
		</g>
		<g>
			<path class="st0" d="M596.51,406.41c3.35,0,6.47,2.12,7.6,5.47c1.41,4.2-0.86,8.74-5.05,10.14c-0.84,0.28-1.7,0.42-2.55,0.42
				c-3.35,0-6.47-2.12-7.6-5.47c-1.4-4.2,0.86-8.74,5.05-10.14C594.8,406.54,595.66,406.41,596.51,406.41 M596.51,397.85
				L596.51,397.85c-1.79,0-3.56,0.29-5.26,0.86c-8.66,2.9-13.35,12.31-10.45,20.98c2.27,6.77,8.58,11.31,15.71,11.31
				c1.79,0,3.56-0.29,5.26-0.86c4.2-1.41,7.6-4.36,9.57-8.32c1.97-3.96,2.29-8.46,0.88-12.65
				C609.95,402.4,603.64,397.85,596.51,397.85L596.51,397.85z"/>
		</g>
		<g>
			<path class="st0" d="M545.77,253.23c3.35,0,6.47,2.12,7.6,5.47c1.41,4.2-0.86,8.74-5.05,10.14c-0.84,0.28-1.7,0.42-2.55,0.42
				c-3.35,0-6.47-2.12-7.6-5.47c-1.4-4.2,0.86-8.74,5.05-10.14C544.07,253.37,544.93,253.23,545.77,253.23 M545.77,244.67
				L545.77,244.67c-1.79,0-3.56,0.29-5.26,0.86c-8.66,2.9-13.35,12.31-10.45,20.98c2.27,6.77,8.58,11.31,15.71,11.31
				c1.79,0,3.56-0.29,5.26-0.86c4.2-1.41,7.6-4.36,9.57-8.32c1.97-3.96,2.29-8.46,0.88-12.65
				C559.22,249.22,552.91,244.67,545.77,244.67L545.77,244.67z"/>
		</g>
	</g>
	<g>
		<g>
			<polygon class="st0" points="745.66,592.27 557.92,534.06 561.72,521.79 737.2,576.19 748.61,539.34 692.13,497.5 762.65,486.7 
				775.26,445.99 787.53,449.8 772.53,498.17 724.53,505.52 763.57,534.46 			"/>
		</g>
		<g>
			<polygon class="st0" points="742.45,445.74 730.18,441.93 736.91,420.23 606.32,379.76 610.12,367.48 752.98,411.77 			"/>
		</g>
		<g>
			<path class="st0" d="M733.5,446.77c0.79,0,1.59,0.12,2.38,0.36c4.23,1.31,6.59,5.8,5.28,10.03c-1.07,3.44-4.23,5.64-7.65,5.64
				c-0.79,0-1.59-0.12-2.38-0.36c-4.23-1.31-6.59-5.8-5.28-10.03C726.91,448.98,730.08,446.77,733.5,446.77 M733.5,438.21
				L733.5,438.21c-7.3,0-13.66,4.69-15.83,11.67c-1.31,4.23-0.9,8.71,1.17,12.63c2.06,3.92,5.53,6.8,9.75,8.11
				c1.6,0.49,3.25,0.74,4.91,0.74c7.3,0,13.66-4.69,15.83-11.67c1.31-4.23,0.9-8.71-1.17-12.63c-2.06-3.92-5.53-6.8-9.75-8.11
				C736.81,438.46,735.16,438.21,733.5,438.21L733.5,438.21z"/>
		</g>
		<g>
			<path class="st0" d="M783.25,429.4c0.8,0,1.62,0.12,2.43,0.37c4.32,1.34,6.74,5.93,5.4,10.25c-1.09,3.51-4.33,5.77-7.82,5.77
				c-0.8,0-1.62-0.12-2.43-0.37c-4.32-1.34-6.74-5.93-5.4-10.25C776.51,431.66,779.75,429.4,783.25,429.4 M783.25,420.85
				L783.25,420.85c-7.38,0-13.81,4.74-16,11.79c-2.74,8.83,2.22,18.23,11.04,20.97c1.61,0.5,3.28,0.75,4.96,0.75
				c7.38,0,13.81-4.74,16-11.8c2.73-8.82-2.22-18.23-11.05-20.96C786.6,421.1,784.93,420.85,783.25,420.85L783.25,420.85z"/>
		</g>
		<g>
			<path class="st0" d="M548.24,517.28c0.79,0,1.59,0.12,2.38,0.36c4.23,1.31,6.59,5.8,5.28,10.03c-1.07,3.44-4.23,5.64-7.65,5.64
				c-0.79,0-1.59-0.12-2.38-0.36c-4.23-1.31-6.59-5.8-5.28-10.03C541.65,519.49,544.82,517.28,548.24,517.28 M548.24,508.72
				L548.24,508.72c-7.3,0-13.66,4.69-15.83,11.67c-2.71,8.73,2.19,18.03,10.92,20.74c1.6,0.5,3.25,0.75,4.91,0.75
				c7.3,0,13.66-4.69,15.83-11.67c1.31-4.23,0.9-8.71-1.17-12.63c-2.06-3.92-5.53-6.8-9.75-8.11
				C551.55,508.97,549.9,508.72,548.24,508.72L548.24,508.72z"/>
		</g>
		<g>
			<path class="st0" d="M596.53,363.32c0.79,0,1.58,0.12,2.37,0.36c4.23,1.31,6.59,5.8,5.28,10.03c-1.07,3.44-4.23,5.64-7.65,5.64
				c-0.79,0-1.59-0.12-2.38-0.36c-4.23-1.31-6.59-5.8-5.28-10.03C589.95,365.53,593.12,363.32,596.53,363.32 M596.54,354.76
				L596.54,354.76c-7.31,0-13.67,4.69-15.83,11.67c-1.31,4.23-0.9,8.71,1.17,12.63c2.06,3.92,5.53,6.79,9.75,8.11
				c1.6,0.49,3.25,0.74,4.91,0.74c7.3,0,13.66-4.69,15.83-11.67c2.71-8.73-2.19-18.03-10.92-20.74
				C599.85,355.01,598.2,354.76,596.54,354.76L596.54,354.76z"/>
		</g>
	</g>
	<g>
		<g>
			<polygon class="st0" points="565.43,756.76 447.03,599.86 457.28,592.14 567.94,738.77 598.73,715.53 577.34,648.58 640.89,681 
				674.9,655.33 682.62,665.6 642.21,696.07 598.94,674.02 613.73,720.32 			"/>
		</g>
		<g>
			<polygon class="st0" points="648.42,635.96 640.68,625.73 658.81,612.03 576.46,502.88 586.71,495.16 676.8,614.54 			"/>
		</g>
		<g>
			<path class="st0" d="M635.85,630.06c2.43,0,4.83,1.1,6.4,3.19c2.67,3.53,1.96,8.56-1.57,11.22c-1.44,1.09-3.14,1.62-4.82,1.62
				c-2.43,0-4.83-1.1-6.4-3.19c-2.66-3.53-1.96-8.56,1.57-11.22C632.48,630.59,634.17,630.06,635.85,630.06 M635.85,621.5
				L635.85,621.5c-3.63,0-7.08,1.16-9.98,3.35c-7.29,5.5-8.75,15.91-3.25,23.21c3.12,4.13,8.06,6.59,13.24,6.59
				c3.63,0,7.08-1.16,9.98-3.35c3.53-2.66,5.82-6.55,6.43-10.93c0.61-4.38-0.52-8.75-3.19-12.28
				C645.98,623.97,641.03,621.5,635.85,621.5L635.85,621.5z"/>
		</g>
		<g>
			<path class="st0" d="M686.27,644.99c2.48,0,4.94,1.12,6.55,3.26c2.73,3.61,2.01,8.75-1.6,11.48c-1.48,1.11-3.21,1.65-4.93,1.65
				c-2.48,0-4.94-1.12-6.55-3.26c-2.72-3.61-2.01-8.75,1.61-11.48C682.82,645.53,684.55,644.99,686.27,644.99 M686.27,636.44
				L686.27,636.44c-3.67,0-7.16,1.17-10.09,3.38c-7.37,5.56-8.85,16.09-3.29,23.46c3.15,4.17,8.15,6.66,13.38,6.66
				c3.67,0,7.15-1.17,10.09-3.38c3.57-2.7,5.88-6.62,6.5-11.05c0.62-4.43-0.52-8.84-3.22-12.41
				C696.51,638.93,691.5,636.44,686.27,636.44L686.27,636.44z"/>
		</g>
		<g>
			<path class="st0" d="M444.3,579.08c2.43,0,4.83,1.1,6.4,3.19c2.67,3.53,1.96,8.56-1.57,11.22c-1.45,1.09-3.14,1.62-4.82,1.62
				c-2.43,0-4.83-1.1-6.4-3.19c-2.66-3.53-1.96-8.56,1.57-11.22C440.92,579.61,442.62,579.08,444.3,579.08 M444.3,570.52
				L444.3,570.52c-3.63,0-7.08,1.16-9.98,3.35c-7.29,5.5-8.75,15.91-3.25,23.21c3.12,4.13,8.06,6.59,13.24,6.59
				c3.63,0,7.08-1.16,9.98-3.34c3.53-2.67,5.82-6.55,6.43-10.93c0.61-4.38-0.52-8.75-3.18-12.28
				C454.42,572.99,449.47,570.52,444.3,570.52L444.3,570.52z"/>
		</g>
		<g>
			<path class="st0" d="M573.43,482.33c2.43,0,4.83,1.1,6.4,3.19c2.66,3.53,1.96,8.56-1.57,11.22c-1.44,1.09-3.14,1.62-4.82,1.62
				c-2.43,0-4.83-1.1-6.4-3.19c-2.67-3.53-1.96-8.56,1.57-11.22C570.05,482.85,571.75,482.33,573.43,482.33 M573.43,473.77
				L573.43,473.77c-3.63,0-7.08,1.16-9.98,3.35c-3.53,2.66-5.82,6.55-6.43,10.93c-0.61,4.38,0.52,8.75,3.19,12.28
				c3.11,4.13,8.06,6.59,13.23,6.59c3.63,0,7.08-1.16,9.98-3.34c7.29-5.5,8.75-15.91,3.25-23.21
				C583.55,476.23,578.6,473.77,573.43,473.77L573.43,473.77z"/>
		</g>
	</g>
	<g>
		<g>
			<polygon class="st0" points="323.05,785.01 318.61,588.51 331.45,588.21 335.59,771.87 374.15,771 395.9,704.17 428.55,767.59 
				471.15,766.62 471.43,779.46 420.81,780.6 398.58,737.43 383.55,783.64 			"/>
		</g>
		<g>
			<polygon class="st0" points="460.96,735.43 460.67,722.59 483.39,722.09 480.29,585.4 493.13,585.1 496.52,734.63 			"/>
		</g>
		<g>
			<path class="st0" d="M449.55,721.8c4.34,0,7.91,3.47,8.01,7.83c0.1,4.42-3.41,8.09-7.83,8.19c-0.06,0-0.12,0-0.19,0
				c-4.34,0-7.91-3.47-8.01-7.83c-0.1-4.42,3.4-8.09,7.83-8.19C449.43,721.8,449.49,721.8,449.55,721.8 M449.55,713.24h-0.1l-0.28,0
				c-4.43,0.1-8.55,1.92-11.61,5.12c-3.06,3.2-4.69,7.4-4.59,11.83c0.2,8.93,7.63,16.2,16.56,16.2c4.8-0.1,8.93-1.92,11.98-5.12
				c3.06-3.2,4.69-7.4,4.59-11.83C465.91,720.51,458.48,713.24,449.55,713.24L449.55,713.24z"/>
		</g>
		<g>
			<path class="st0" d="M481.64,763.34c4.44,0,8.09,3.55,8.19,8.01c0.1,4.52-3.48,8.28-8.01,8.38c-0.06,0-0.13,0-0.19,0
				c-4.44,0-8.09-3.55-8.19-8.01c-0.1-4.52,3.48-8.28,8.01-8.38C481.52,763.34,481.58,763.34,481.64,763.34 M481.64,754.78h-0.09
				l-0.28,0c-4.48,0.1-8.65,1.94-11.74,5.17c-3.09,3.23-4.74,7.48-4.64,11.96c0.2,9.03,7.72,16.38,16.75,16.38
				c9.62-0.21,16.96-7.9,16.75-17.13C498.19,762.12,490.67,754.78,481.64,754.78L481.64,754.78z"/>
		</g>
		<g>
			<path class="st0" d="M323.85,568.53c4.34,0,7.91,3.47,8.01,7.83c0.1,4.42-3.4,8.09-7.83,8.19c-0.06,0-0.12,0-0.19,0
				c-4.34,0-7.91-3.47-8.01-7.83c-0.1-4.42,3.41-8.09,7.83-8.19C323.73,568.53,323.79,568.53,323.85,568.53 M323.85,559.97h-0.1
				l-0.28,0c-4.43,0.1-8.55,1.92-11.61,5.12c-3.06,3.2-4.69,7.4-4.59,11.83c0.2,8.93,7.63,16.2,16.57,16.2
				c4.8-0.1,8.93-1.92,11.98-5.12c3.06-3.2,4.69-7.4,4.59-11.83C340.21,567.24,332.78,559.97,323.85,559.97L323.85,559.97z"/>
		</g>
		<g>
			<path class="st0" d="M485.18,565.43c4.34,0,7.91,3.47,8.01,7.83c0.1,4.42-3.41,8.09-7.83,8.19c-0.06,0-0.12,0-0.19,0
				c-4.34,0-7.91-3.47-8.01-7.83c-0.1-4.42,3.41-8.09,7.83-8.19C485.05,565.43,485.11,565.43,485.18,565.43 M485.18,556.87h-0.1
				l-0.28,0c-4.43,0.1-8.55,1.92-11.61,5.12c-3.06,3.2-4.69,7.4-4.59,11.83c0.2,8.93,7.63,16.2,16.57,16.2
				c9.51-0.21,16.78-7.81,16.57-16.94C501.54,564.13,494.11,556.87,485.18,556.87L485.18,556.87z"/>
		</g>
	</g>
	<g>
		<g>
			<polygon class="st0" points="233.5,748.54 191.73,719.9 198.92,671.85 159.73,700.59 109.82,666.35 221,504.27 231.58,511.53 
				127.68,663.04 159.48,684.84 216.18,643.3 205.63,713.85 240.76,737.94 			"/>
		</g>
		<g>
			<polygon class="st0" points="280.05,726.79 250.72,706.67 257.98,696.07 276.72,708.93 354.06,596.19 364.64,603.44 			"/>
		</g>
		<g>
			<path class="st0" d="M244.74,687.43c1.56,0,3.14,0.46,4.52,1.41c3.65,2.5,4.58,7.49,2.08,11.14c-1.55,2.26-4.06,3.48-6.62,3.48
				c-1.56,0-3.14-0.46-4.52-1.41c-3.65-2.5-4.58-7.49-2.08-11.14C239.68,688.65,242.19,687.43,244.74,687.43 M244.74,678.87
				L244.74,678.87c-5.47,0-10.58,2.69-13.68,7.2c-5.17,7.54-3.24,17.88,4.3,23.04c2.77,1.9,6.01,2.91,9.36,2.91
				c5.47,0,10.58-2.69,13.68-7.2c2.5-3.65,3.44-8.06,2.62-12.41c-0.81-4.35-3.27-8.13-6.92-10.63
				C251.34,679.88,248.1,678.87,244.74,678.87L244.74,678.87z"/>
		</g>
		<g>
			<path class="st0" d="M246.42,739.86c1.6,0,3.21,0.47,4.63,1.44c3.73,2.56,4.68,7.66,2.12,11.39c-1.59,2.32-4.15,3.56-6.76,3.56
				c-1.6,0-3.21-0.47-4.63-1.44c-3.73-2.56-4.68-7.66-2.12-11.39C241.24,741.1,243.81,739.86,246.42,739.86 M246.42,731.3
				c-5.53,0-10.7,2.72-13.82,7.28c-5.22,7.62-3.28,18.07,4.34,23.29c2.8,1.92,6.08,2.94,9.47,2.94c5.53,0,10.7-2.72,13.82-7.28
				c5.22-7.62,3.28-18.07-4.34-23.29C253.09,732.32,249.81,731.3,246.42,731.3L246.42,731.3z"/>
		</g>
		<g>
			<path class="st0" d="M232.24,489.6c1.56,0,3.14,0.46,4.52,1.41c3.65,2.5,4.58,7.49,2.08,11.14c-1.55,2.26-4.06,3.48-6.62,3.48
				c-1.56,0-3.14-0.46-4.52-1.41c-3.65-2.5-4.58-7.49-2.08-11.14C227.18,490.82,229.69,489.6,232.24,489.6 M232.24,481.04
				L232.24,481.04c-5.47,0-10.58,2.69-13.68,7.2c-5.17,7.54-3.24,17.88,4.3,23.04c2.77,1.9,6.01,2.91,9.36,2.91
				c5.47,0,10.58-2.69,13.68-7.2c2.5-3.65,3.44-8.06,2.62-12.41s-3.27-8.13-6.92-10.63C238.84,482.05,235.6,481.04,232.24,481.04
				L232.24,481.04z"/>
		</g>
		<g>
			<path class="st0" d="M365,581.32c1.56,0,3.14,0.46,4.53,1.41c3.65,2.5,4.58,7.49,2.08,11.14c-1.55,2.26-4.06,3.48-6.61,3.48
				c-1.56,0-3.14-0.46-4.53-1.41c-3.65-2.5-4.58-7.49-2.08-11.14C359.94,582.54,362.45,581.32,365,581.32 M365,572.76L365,572.76
				c-5.47,0-10.58,2.69-13.68,7.2c-5.17,7.53-3.24,17.87,4.29,23.04c2.77,1.9,6.01,2.91,9.37,2.91c5.47,0,10.58-2.69,13.68-7.2
				c5.17-7.53,3.24-17.87-4.29-23.04C371.59,573.76,368.35,572.76,365,572.76L365,572.76z"/>
		</g>
	</g>
	<g>
		<g>
			<polygon class="st0" points="58.45,584.43 41.28,536.8 75.17,502.01 26.57,502.41 6.06,445.51 190.98,378.89 195.33,390.96 
				22.49,453.23 35.56,489.51 105.85,488.91 56.08,540.01 70.53,580.09 			"/>
		</g>
		<g>
			<polygon class="st0" points="108.92,593.98 96.87,560.53 108.96,556.18 116.65,577.56 245.28,531.2 249.63,543.27 			"/>
		</g>
		<g>
			<path class="st0" d="M98.57,539.9c3.28,0,6.36,2.03,7.54,5.3c1.5,4.16-0.66,8.75-4.82,10.25c-0.9,0.32-1.81,0.48-2.71,0.48
				c-3.28,0-6.36-2.03-7.54-5.3c-1.5-4.16,0.66-8.75,4.82-10.25C96.75,540.05,97.67,539.9,98.57,539.9 M98.57,531.34L98.57,531.34
				c-1.92,0-3.81,0.33-5.62,0.98c-4.16,1.5-7.5,4.53-9.38,8.54c-1.88,4.01-2.1,8.51-0.59,12.67c2.36,6.55,8.63,10.96,15.59,10.96
				c1.92,0,3.81-0.33,5.62-0.98c4.16-1.5,7.5-4.53,9.38-8.54c1.88-4.01,2.1-8.51,0.59-12.67
				C111.8,535.74,105.53,531.34,98.57,531.34L98.57,531.34z"/>
		</g>
		<g>
			<path class="st0" d="M69.2,583.4c3.36,0,6.51,2.08,7.71,5.42c1.53,4.26-0.67,8.95-4.93,10.49c-0.92,0.33-1.86,0.49-2.78,0.49
				c-3.36,0-6.51-2.08-7.71-5.42c-1.53-4.26,0.67-8.95,4.93-10.49C67.34,583.56,68.28,583.4,69.2,583.4 M69.2,574.84L69.2,574.84
				c-1.94,0-3.85,0.33-5.68,0.99c-8.69,3.13-13.22,12.75-10.09,21.44c2.39,6.63,8.72,11.08,15.76,11.08c1.94,0,3.85-0.33,5.68-0.99
				c4.21-1.52,7.58-4.58,9.48-8.63c1.9-4.05,2.12-8.6,0.6-12.81C82.58,579.29,76.24,574.84,69.2,574.84L69.2,574.84z"/>
		</g>
		<g>
			<path class="st0" d="M203.98,372.03c3.28,0,6.36,2.03,7.54,5.3c1.5,4.16-0.66,8.75-4.82,10.25c-0.9,0.32-1.82,0.48-2.72,0.48
				c-3.28,0-6.36-2.03-7.54-5.3c-1.5-4.16,0.66-8.75,4.82-10.26C202.16,372.18,203.08,372.03,203.98,372.03 M203.98,363.47
				c-1.92,0-3.81,0.33-5.62,0.98c-8.59,3.1-13.07,12.61-9.97,21.21c2.36,6.56,8.63,10.96,15.59,10.96c1.92,0,3.81-0.33,5.62-0.98
				c4.16-1.5,7.5-4.53,9.38-8.54c1.88-4.01,2.09-8.51,0.59-12.67C217.21,367.87,210.95,363.47,203.98,363.47L203.98,363.47z"/>
		</g>
		<g>
			<path class="st0" d="M258.16,524.02c3.28,0,6.36,2.03,7.54,5.3c1.5,4.16-0.66,8.75-4.82,10.26c-0.9,0.32-1.81,0.48-2.72,0.48
				c-3.28,0-6.36-2.03-7.54-5.3c-1.5-4.16,0.66-8.76,4.82-10.26C256.34,524.17,257.26,524.02,258.16,524.02 M258.16,515.46
				c-1.92,0-3.81,0.33-5.62,0.98c-8.6,3.1-13.07,12.61-9.97,21.21c2.36,6.55,8.63,10.96,15.59,10.96c1.92,0,3.81-0.33,5.62-0.98
				c8.6-3.1,13.07-12.61,9.97-21.21C271.39,519.86,265.13,515.46,258.16,515.46L258.16,515.46z"/>
		</g>
	</g>
	<g>
		<g>
			<polygon class="st0" points="24.56,352.52 12.2,349.01 26.1,300.31 73.93,291.85 34.24,263.8 50.84,205.62 239.86,259.57 
				236.33,271.91 59.67,221.5 49.09,258.58 106.48,299.14 36.25,311.55 			"/>
		</g>
		<g>
			<polygon class="st0" points="191.42,427.27 47.61,386.24 57.36,352.05 69.71,355.57 63.47,377.42 194.95,414.93 			"/>
		</g>
		<g>
			<path class="st0" d="M66.1,334.78c0.73,0,1.47,0.1,2.2,0.31c4.25,1.21,6.72,5.65,5.51,9.9c-1.01,3.52-4.21,5.82-7.7,5.82
				c-0.73,0-1.47-0.1-2.2-0.31c-4.25-1.21-6.72-5.65-5.51-9.9C59.41,337.07,62.61,334.78,66.1,334.78 M66.1,326.22L66.1,326.22
				c-7.36,0-13.91,4.95-15.93,12.03c-2.51,8.79,2.6,17.98,11.39,20.48c1.48,0.42,3.02,0.64,4.55,0.64c7.36,0,13.91-4.95,15.93-12.03
				c2.51-8.79-2.6-17.98-11.39-20.48C69.17,326.43,67.64,326.22,66.1,326.22L66.1,326.22z"/>
		</g>
		<g>
			<path class="st0" d="M16.75,352.9c0.74,0,1.5,0.1,2.25,0.32c4.35,1.24,6.88,5.78,5.63,10.13c-1.03,3.6-4.31,5.95-7.88,5.95
				c-0.74,0-1.5-0.1-2.25-0.32c-4.35-1.24-6.87-5.78-5.63-10.13C9.9,355.25,13.18,352.9,16.75,352.9 M16.75,344.34L16.75,344.34
				c-7.44,0-14.07,5-16.11,12.16c-2.53,8.88,2.63,18.17,11.51,20.71c1.5,0.43,3.05,0.65,4.6,0.65c7.44,0,14.07-5,16.11-12.16
				c1.23-4.3,0.71-8.83-1.47-12.74c-2.18-3.91-5.74-6.74-10.05-7.97C19.85,344.56,18.31,344.34,16.75,344.34L16.75,344.34z"/>
		</g>
		<g>
			<path class="st0" d="M249.72,260.09c0.73,0,1.47,0.1,2.2,0.31c4.25,1.21,6.72,5.65,5.51,9.9c-1.01,3.52-4.21,5.82-7.7,5.82
				c-0.73,0-1.47-0.1-2.2-0.31c-4.25-1.21-6.72-5.65-5.51-9.9C243.02,262.39,246.23,260.09,249.72,260.09 M249.72,251.53
				L249.72,251.53c-7.36,0-13.91,4.95-15.93,12.03c-2.51,8.79,2.6,17.98,11.39,20.48c1.48,0.42,3.02,0.64,4.55,0.64
				c7.36,0,13.91-4.95,15.93-12.03c2.51-8.79-2.6-17.98-11.39-20.48C252.79,251.75,251.26,251.53,249.72,251.53L249.72,251.53z"/>
		</g>
		<g>
			<path class="st0" d="M204.92,415.11c0.73,0,1.47,0.1,2.2,0.31c4.25,1.21,6.72,5.65,5.51,9.9c-1.01,3.52-4.21,5.82-7.7,5.82
				c-0.73,0-1.47-0.1-2.2-0.31c-4.26-1.21-6.72-5.65-5.51-9.9C198.22,417.4,201.43,415.11,204.92,415.11 M204.92,406.55
				c-7.36,0-13.92,4.95-15.94,12.03c-1.21,4.26-0.7,8.73,1.45,12.6c2.15,3.87,5.68,6.67,9.94,7.88c1.48,0.42,3.01,0.64,4.55,0.64
				c7.36,0,13.91-4.95,15.93-12.03c2.51-8.79-2.6-17.98-11.39-20.48C207.99,406.76,206.45,406.55,204.92,406.55L204.92,406.55z"/>
		</g>
	</g>
	<g>
		<g>
			<polygon class="st0" points="339.14,199.24 225.2,55.13 194.94,79.03 217.84,145.5 153.58,114.54 120.16,140.96 112.2,130.89 
				151.92,99.5 195.67,120.56 179.85,74.62 227.3,37.11 349.21,191.28 			"/>
		</g>
		<g>
			<polygon class="st0" points="211.95,299.11 119.18,181.8 147.07,159.73 155.05,169.8 137.22,183.91 222.01,291.15 			"/>
		</g>
		<g>
			<path class="st0" d="M159.57,149.33c2.37,0,4.71,1.04,6.29,3.04c2.74,3.47,2.15,8.51-1.32,11.26c-1.47,1.16-3.22,1.73-4.97,1.73
				c-2.37,0-4.71-1.04-6.29-3.04c-2.75-3.47-2.16-8.51,1.32-11.26C156.08,149.89,157.83,149.33,159.57,149.33 M159.57,140.77
				c-3.71,0-7.36,1.27-10.28,3.57c-3.47,2.74-5.67,6.68-6.18,11.07c-0.51,4.4,0.71,8.73,3.46,12.21c3.16,4,7.9,6.29,13,6.29
				c3.71,0,7.36-1.27,10.28-3.57c7.17-5.67,8.39-16.11,2.72-23.28C169.41,143.06,164.67,140.77,159.57,140.77L159.57,140.77z"/>
		</g>
		<g>
			<path class="st0" d="M108.82,135.17c2.42,0,4.82,1.07,6.43,3.11c2.81,3.55,2.2,8.7-1.35,11.51c-1.5,1.19-3.3,1.77-5.08,1.77
				c-2.42,0-4.81-1.07-6.43-3.11c-2.81-3.55-2.21-8.7,1.34-11.51C105.25,135.75,107.04,135.17,108.82,135.17 M108.82,126.61
				L108.82,126.61c-3.75,0-7.44,1.28-10.39,3.61c-3.51,2.78-5.73,6.75-6.25,11.2c-0.52,4.45,0.73,8.83,3.5,12.34
				c3.2,4.04,7.99,6.36,13.14,6.36c3.75,0,7.44-1.28,10.39-3.61c7.25-5.73,8.48-16.29,2.75-23.53
				C118.77,128.93,113.98,126.61,108.82,126.61L108.82,126.61z"/>
		</g>
		<g>
			<path class="st0" d="M352.23,195.96c2.37,0,4.71,1.04,6.29,3.04c2.75,3.47,2.16,8.51-1.31,11.26c-1.47,1.16-3.22,1.73-4.97,1.73
				c-2.37,0-4.71-1.04-6.29-3.04c-2.74-3.47-2.15-8.51,1.32-11.26C348.74,196.53,350.49,195.96,352.23,195.96 M352.23,187.4
				c-3.71,0-7.36,1.27-10.28,3.57c-7.17,5.67-8.39,16.11-2.72,23.28c3.16,4,7.9,6.3,13.01,6.3c3.71,0,7.36-1.27,10.27-3.57
				c3.47-2.75,5.67-6.68,6.18-11.08c0.51-4.4-0.71-8.73-3.46-12.2C362.07,189.7,357.33,187.4,352.23,187.4L352.23,187.4z"/>
		</g>
		<g>
			<path class="st0" d="M225.32,295.61c2.37,0,4.71,1.04,6.29,3.04c2.75,3.47,2.16,8.51-1.32,11.26c-1.47,1.16-3.22,1.73-4.97,1.73
				c-2.37,0-4.71-1.04-6.29-3.04c-2.74-3.47-2.15-8.51,1.32-11.26C221.83,296.18,223.58,295.61,225.32,295.61 M225.32,287.05
				c-3.71,0-7.36,1.27-10.28,3.57c-7.17,5.67-8.39,16.11-2.72,23.28c3.16,4,7.9,6.3,13,6.3c3.71,0,7.36-1.27,10.28-3.57
				c3.47-2.74,5.67-6.68,6.18-11.07c0.51-4.4-0.71-8.73-3.46-12.21C235.16,289.35,230.42,287.05,225.32,287.05L225.32,287.05z"/>
		</g>
	</g>
</g>
</svg>
