<?xml version="1.0" encoding="utf-8"?>
<!-- Generator: Adobe Illustrator 24.0.0, SVG Export Plug-In . SVG Version: 6.00 Build 0)  -->
<svg version="1.1" id="Calque_1" xmlns="http://www.w3.org/2000/svg" xmlns:xlink="http://www.w3.org/1999/xlink" x="0px" y="0px"
	 viewBox="0 0 234.48 61.09" style="enable-background:new 0 0 234.48 61.09;" xml:space="preserve">
<style type="text/css">
	.st0{fill:#5C96C9;}
	.st1{fill:#515256;}
	.st2{fill:#D14D34;}
</style>
<g>
	<g>
		<g>
			<path class="st0" d="M102.81,31.55h-5.09V14.97L88.75,30.7c-0.2,0.41-0.53,0.73-0.94,0.94c-0.37,0.2-0.81,0.33-1.26,0.33
				s-0.86-0.12-1.22-0.33c-0.37-0.2-0.69-0.53-0.9-0.94l-9-15.73v16.58h-5.05V5.84c0-0.57,0.16-1.1,0.53-1.55
				c0.33-0.45,0.77-0.77,1.34-0.9c0.24-0.08,0.53-0.12,0.81-0.08c0.24,0,0.53,0.08,0.77,0.16c0.24,0.12,0.49,0.24,0.69,0.41
				c0.2,0.2,0.37,0.41,0.53,0.65L86.55,24.5L98.04,4.54c0.33-0.49,0.73-0.86,1.26-1.06s1.06-0.24,1.63-0.08
				c0.53,0.12,0.98,0.45,1.34,0.9c0.37,0.45,0.53,0.98,0.53,1.55V31.55z"/>
			<path class="st0" d="M137.93,20.27c0,1.71-0.33,3.26-0.9,4.69c-0.57,1.43-1.39,2.69-2.4,3.71c-1.06,1.02-2.28,1.83-3.71,2.4
				c-1.43,0.57-2.97,0.9-4.64,0.9h-6.8c-1.67,0-3.22-0.33-4.64-0.9c-1.43-0.57-2.65-1.39-3.71-2.4c-1.02-1.02-1.83-2.28-2.44-3.71
				c-0.57-1.43-0.86-2.97-0.86-4.69v-5.3c0-1.71,0.29-3.26,0.86-4.69c0.61-1.43,1.43-2.65,2.44-3.67c1.06-1.06,2.28-1.87,3.71-2.44
				c1.43-0.57,2.97-0.86,4.64-0.86h6.8c1.67,0,3.22,0.29,4.64,0.86s2.65,1.39,3.71,2.44c1.02,1.02,1.83,2.24,2.4,3.67
				c0.57,1.43,0.9,2.97,0.9,4.69V20.27z M132.88,14.97c0-1.02-0.16-1.91-0.49-2.73c-0.33-0.81-0.77-1.51-1.34-2.08
				c-0.57-0.57-1.26-1.02-2.08-1.34c-0.81-0.29-1.71-0.45-2.69-0.45h-6.8c-1.02,0-1.91,0.16-2.69,0.45
				c-0.81,0.33-1.51,0.77-2.12,1.34c-0.57,0.57-1.02,1.26-1.34,2.08s-0.45,1.71-0.45,2.73v5.3c0,1.02,0.12,1.91,0.45,2.73
				s0.77,1.51,1.34,2.08c0.61,0.57,1.3,1.02,2.12,1.34c0.77,0.33,1.67,0.49,2.69,0.49h6.8c0.98,0,1.87-0.16,2.69-0.49
				c0.77-0.33,1.51-0.77,2.08-1.34c0.57-0.57,1.02-1.26,1.34-2.08c0.33-0.81,0.49-1.71,0.49-2.73V14.97z"/>
			<path class="st0" d="M168.08,31.55h-18.21c-0.69,0-1.47-0.12-2.32-0.37c-0.81-0.24-1.59-0.65-2.28-1.22
				c-0.69-0.57-1.3-1.3-1.75-2.2c-0.49-0.9-0.73-2-0.73-3.3V6.25c0-0.37,0.08-0.69,0.2-1.02c0.12-0.29,0.29-0.57,0.53-0.81
				c0.24-0.2,0.49-0.41,0.81-0.53c0.29-0.12,0.65-0.2,1.02-0.2h22.73v5.05h-20.25v15.73c0,0.65,0.16,1.18,0.53,1.51
				c0.37,0.37,0.86,0.53,1.55,0.53h18.17V31.55z M165.79,20.18h-15.93v-5.09h15.93V20.18z"/>
			<path class="st0" d="M200.75,29.39c0,0.37,0,0.69-0.16,1.02c-0.16,0.29-0.33,0.57-0.49,0.81c-0.33,0.2-0.49,0.41-0.81,0.53
				c-0.33,0.12-0.65,0.2-0.98,0.2c-0.33,0-0.65-0.08-0.98-0.2c-0.33-0.12-0.65-0.29-0.81-0.57l-18.5-19.27v19.64h-5.05V5.84
				c0-0.53,0.16-0.98,0.45-1.39c0.29-0.45,0.65-0.73,1.1-0.98c0.49-0.16,0.98-0.2,1.47-0.12c0.53,0.08,0.94,0.33,1.3,0.69
				l18.41,19.27V3.68h5.05V29.39z"/>
			<path class="st0" d="M234.48,29.39c0,0.37-0.08,0.69-0.24,1.02c-0.16,0.29-0.33,0.57-0.57,0.81c-0.16,0.2-0.49,0.41-0.73,0.53
				c-0.33,0.12-0.65,0.2-1.06,0.2c-0.24,0-0.57-0.08-0.9-0.2c-0.33-0.12-0.65-0.29-0.9-0.57l-18.41-19.27v19.64h-5.05V5.84
				c0-0.53,0.16-0.98,0.41-1.39c0.33-0.45,0.73-0.73,1.14-0.98c0.49-0.16,0.98-0.2,1.47-0.12c0.49,0.08,0.98,0.33,1.3,0.69
				l18.5,19.27V3.68h5.05V29.39z"/>
		</g>
		<g>
			<g>
				<path class="st1" d="M80.65,37.99v1.71h-4.52v14.42h-2.08V39.7h-4.56v-1.71H80.65z"/>
				<path class="st1" d="M84.8,39.7v5.5h6.11v1.59H84.8v5.62h6.8v1.71h-8.88V37.99h8.88v1.71H84.8z"/>
				<path class="st1" d="M106.27,39.29c1.3,0.98,2.2,2.28,2.69,3.99h-2.2c-0.41-1.1-1.1-1.96-2-2.57c-0.94-0.65-2.04-0.94-3.38-0.94
					c-1.02,0-1.96,0.24-2.81,0.73c-0.81,0.53-1.47,1.26-1.96,2.2c-0.49,0.98-0.73,2.08-0.73,3.38c0,1.26,0.24,2.36,0.73,3.3
					c0.49,0.94,1.14,1.67,1.96,2.16c0.86,0.53,1.79,0.77,2.81,0.77c1.34,0,2.44-0.33,3.38-0.94c0.9-0.65,1.59-1.47,2-2.57h2.2
					c-0.49,1.71-1.39,3.01-2.69,3.99c-1.26,0.94-2.89,1.43-4.85,1.43c-1.51,0-2.85-0.33-3.99-1.02c-1.18-0.69-2.08-1.67-2.73-2.89
					c-0.65-1.26-0.98-2.69-0.98-4.24c0-1.63,0.33-3.06,0.98-4.28c0.65-1.26,1.55-2.24,2.73-2.93c1.14-0.69,2.49-1.02,3.99-1.02
					C103.38,37.87,105.01,38.31,106.27,39.29z"/>
				<path class="st1" d="M124.08,37.99v16.13H122v-7.46h-8.19v7.46h-2.08V37.99h2.08V45H122v-7.01H124.08z"/>
				<path class="st1" d="M139.92,54.12h-2.08l-8.35-12.71v12.71h-2.08V37.99h2.08l8.35,12.79V37.99h2.08V54.12z"/>
				<path class="st1" d="M154.71,38.84c1.22,0.69,2.16,1.67,2.81,2.93c0.69,1.26,1.06,2.69,1.06,4.28s-0.37,3.01-1.06,4.28
					c-0.65,1.22-1.59,2.2-2.81,2.93c-1.18,0.69-2.53,1.02-4.03,1.02c-1.47,0-2.85-0.33-4.03-1.02c-1.22-0.73-2.16-1.71-2.85-2.93
					c-0.69-1.26-1.06-2.69-1.06-4.28s0.37-3.01,1.06-4.28c0.69-1.26,1.63-2.24,2.85-2.93c1.18-0.69,2.57-1.06,4.03-1.06
					C152.19,37.78,153.53,38.15,154.71,38.84z M147.71,40.51c-0.9,0.49-1.55,1.22-2.08,2.2c-0.49,0.94-0.73,2.08-0.73,3.34
					s0.24,2.36,0.73,3.34c0.53,0.94,1.18,1.67,2.08,2.2c0.86,0.53,1.87,0.77,2.97,0.77s2.08-0.29,2.97-0.77
					c0.86-0.53,1.55-1.26,2.04-2.2c0.49-0.98,0.77-2.08,0.77-3.34s-0.29-2.4-0.77-3.34c-0.49-0.98-1.18-1.71-2.04-2.2
					c-0.9-0.53-1.87-0.77-2.97-0.77S148.56,39.98,147.71,40.51z"/>
				<path class="st1" d="M163.43,52.49h5.7v1.63h-7.78V37.99h2.08V52.49z"/>
				<path class="st1" d="M182.7,38.84c1.22,0.69,2.16,1.67,2.81,2.93c0.69,1.26,1.06,2.69,1.06,4.28s-0.37,3.01-1.06,4.28
					c-0.65,1.22-1.59,2.2-2.81,2.93c-1.18,0.69-2.53,1.02-4.03,1.02c-1.47,0-2.85-0.33-4.03-1.02c-1.22-0.73-2.16-1.71-2.85-2.93
					c-0.69-1.26-1.06-2.69-1.06-4.28s0.37-3.01,1.06-4.28c0.69-1.26,1.63-2.24,2.85-2.93c1.18-0.69,2.57-1.06,4.03-1.06
					C180.18,37.78,181.52,38.15,182.7,38.84z M175.69,40.51c-0.9,0.49-1.55,1.22-2.08,2.2c-0.49,0.94-0.73,2.08-0.73,3.34
					s0.24,2.36,0.73,3.34c0.53,0.94,1.18,1.67,2.08,2.2c0.86,0.53,1.87,0.77,2.97,0.77s2.08-0.29,2.97-0.77
					c0.86-0.53,1.55-1.26,2.04-2.2c0.49-0.98,0.77-2.08,0.77-3.34s-0.29-2.4-0.77-3.34c-0.49-0.98-1.18-1.71-2.04-2.2
					c-0.9-0.53-1.87-0.77-2.97-0.77S176.55,39.98,175.69,40.51z"/>
				<path class="st1" d="M201.4,39.25c1.3,0.94,2.12,2.2,2.61,3.79h-2.2c-0.41-0.98-1.06-1.75-1.87-2.36
					c-0.98-0.57-1.96-0.9-3.26-0.9c-1.06,0-2.04,0.29-2.89,0.77c-0.9,0.53-1.55,1.22-2.08,2.2c-0.49,0.94-0.73,2.04-0.73,3.34
					s0.24,2.4,0.77,3.38c0.49,0.94,1.18,1.67,2.08,2.2c0.9,0.49,1.87,0.73,3.1,0.73c0.98,0,1.87-0.2,2.69-0.61
					c0.81-0.45,1.47-1.06,2.04-1.87c0.57-0.81,0.9-1.75,0.9-2.85h-6.27v-1.59h8.07v1.96c-0.16,1.26-0.49,2.4-1.14,3.46
					c-0.65,1.02-1.63,1.87-2.69,2.44c-1.06,0.61-2.36,0.94-3.83,0.94c-1.47,0-2.89-0.37-4.07-1.06c-1.18-0.69-2.12-1.63-2.77-2.89
					c-0.65-1.22-1.02-2.65-1.02-4.24c0-1.63,0.37-3.06,1.02-4.28c0.65-1.26,1.59-2.2,2.77-2.93c1.18-0.69,2.61-1.02,4.07-1.02
					C198.55,37.87,200.1,38.31,201.4,39.25z"/>
				<path class="st1" d="M209.22,37.99v16.13h-2.12V37.99H209.22z"/>
				<path class="st1" d="M214.68,39.7v5.5h6.11v1.59h-6.11v5.62h6.84v1.71h-8.96V37.99h8.96v1.71H214.68z"/>
				<path class="st1" d="M233.75,52.08c-0.41,0.65-0.9,1.18-1.71,1.59c-0.73,0.41-1.63,0.61-2.77,0.61c-1.06,0-1.96-0.2-2.77-0.57
					c-0.9-0.41-1.55-0.94-2.04-1.63c-0.49-0.65-0.73-1.43-0.81-2.32h2.2c0,0.49,0.16,0.94,0.49,1.34c0.24,0.45,0.57,0.81,1.14,1.1
					c0.49,0.29,1.06,0.41,1.79,0.41c0.9,0,1.55-0.24,2.04-0.73c0.49-0.49,0.73-1.1,0.73-1.87c0-0.65-0.16-1.18-0.49-1.59
					c-0.33-0.41-0.73-0.73-1.3-0.98c-0.49-0.24-1.14-0.49-2.04-0.77c-0.98-0.33-1.79-0.65-2.44-0.94c-0.57-0.29-1.14-0.73-1.55-1.34
					c-0.49-0.61-0.65-1.39-0.65-2.36c0-0.81,0.16-1.55,0.57-2.2c0.41-0.65,0.98-1.14,1.71-1.51c0.81-0.33,1.71-0.53,2.69-0.53
					c1.63,0,2.85,0.41,3.75,1.18c0.98,0.77,1.55,1.75,1.63,2.93h-2.2c-0.16-0.65-0.49-1.22-0.98-1.71c-0.57-0.49-1.3-0.73-2.2-0.73
					c-0.81,0-1.47,0.24-2.04,0.65c-0.49,0.45-0.73,1.06-0.73,1.87c0,0.61,0.16,1.1,0.49,1.51c0.33,0.37,0.73,0.69,1.22,0.9
					c0.49,0.24,1.14,0.49,2.04,0.77c1.06,0.33,1.87,0.65,2.53,0.94c0.57,0.33,1.14,0.77,1.55,1.39c0.49,0.61,0.73,1.43,0.73,2.44
					C234.32,50.7,234.08,51.39,233.75,52.08z"/>
			</g>
		</g>
	</g>
	<g>
		<g>
			<g>
				<polygon class="st2" points="37.71,15.76 36.71,15.76 36.71,1.53 33.73,1.53 31.92,6.67 29.51,1.7 26.2,1.7 26.2,0.7 30.13,0.7 
					31.77,4.09 33.02,0.53 37.71,0.53 				"/>
			</g>
			<g>
				<polygon class="st2" points="25.18,15.72 24.18,15.72 24.18,4.13 26.94,4.13 26.94,5.13 25.18,5.13 				"/>
			</g>
			<g>
				<path class="st2" d="M27.81,3.97c0.34,0,0.62,0.28,0.62,0.62s-0.28,0.62-0.62,0.62c-0.34,0-0.62-0.28-0.62-0.62
					S27.47,3.97,27.81,3.97 M27.81,3.3c-0.71,0-1.28,0.58-1.28,1.28s0.58,1.28,1.28,1.28c0.71,0,1.28-0.58,1.28-1.28
					S28.52,3.3,27.81,3.3L27.81,3.3z"/>
			</g>
			<g>
				<path class="st2" d="M25.4,0.66c0.35,0,0.63,0.28,0.63,0.64c0,0.35-0.28,0.64-0.63,0.64s-0.64-0.28-0.64-0.64
					C24.76,0.95,25.05,0.66,25.4,0.66 M25.4,0c-0.72,0-1.3,0.58-1.3,1.3s0.58,1.3,1.3,1.3c0.72,0,1.3-0.58,1.3-1.3S26.12,0,25.4,0
					L25.4,0z"/>
			</g>
			<g>
				<path class="st2" d="M37.28,16.06c0.34,0,0.62,0.28,0.62,0.62c0,0.34-0.28,0.62-0.62,0.62s-0.62-0.28-0.62-0.62
					C36.66,16.34,36.94,16.06,37.28,16.06 M37.28,15.4c-0.71,0-1.28,0.58-1.28,1.28c0,0.71,0.58,1.28,1.28,1.28s1.28-0.58,1.28-1.28
					C38.57,15.97,37.99,15.4,37.28,15.4L37.28,15.4z"/>
			</g>
			<g>
				<path class="st2" d="M24.78,16.02c0.34,0,0.62,0.28,0.62,0.62s-0.28,0.62-0.62,0.62c-0.34,0-0.62-0.28-0.62-0.62
					S24.44,16.02,24.78,16.02 M24.78,15.35c-0.71,0-1.28,0.58-1.28,1.28c0,0.71,0.58,1.28,1.28,1.28c0.71,0,1.28-0.58,1.28-1.28
					C26.06,15.93,25.49,15.35,24.78,15.35L24.78,15.35z"/>
			</g>
		</g>
		<g>
			<g>
				<polygon class="st2" points="45.12,22.46 44.32,21.88 52.63,10.32 50.2,8.58 45.74,11.7 46.68,6.25 44,4.32 44.58,3.52 
					47.77,5.81 47.13,9.52 50.21,7.36 54.02,10.1 				"/>
			</g>
			<g>
				<polygon class="st2" points="34.98,15.11 34.17,14.53 40.94,5.12 43.17,6.73 42.59,7.54 41.16,6.51 				"/>
			</g>
			<g>
				<path class="st2" d="M43.62,6.99c0.13,0,0.25,0.04,0.36,0.12c0.28,0.2,0.34,0.59,0.14,0.87c-0.12,0.17-0.31,0.26-0.5,0.26
					c-0.13,0-0.25-0.04-0.36-0.12c-0.28-0.2-0.34-0.59-0.14-0.87C43.24,7.08,43.43,6.99,43.62,6.99 M43.62,6.32L43.62,6.32
					c-0.41,0-0.8,0.2-1.04,0.53c-0.2,0.28-0.28,0.62-0.23,0.96c0.06,0.34,0.24,0.64,0.52,0.84c0.22,0.16,0.48,0.24,0.75,0.24
					c0.41,0,0.8-0.2,1.04-0.53c0.41-0.57,0.28-1.38-0.29-1.79C44.15,6.41,43.89,6.32,43.62,6.32L43.62,6.32z"/>
			</g>
			<g>
				<path class="st2" d="M43.58,2.89c0.13,0,0.26,0.04,0.37,0.12c0.28,0.2,0.35,0.6,0.14,0.89c-0.12,0.17-0.32,0.26-0.52,0.26
					c-0.13,0-0.26-0.04-0.37-0.12c-0.28-0.2-0.35-0.6-0.14-0.89C43.19,2.99,43.38,2.89,43.58,2.89 M43.58,2.23L43.58,2.23
					c-0.42,0-0.81,0.2-1.05,0.54c-0.42,0.58-0.29,1.39,0.3,1.81c0.22,0.16,0.48,0.24,0.76,0.24c0.42,0,0.81-0.2,1.05-0.54
					c0.42-0.58,0.29-1.39-0.3-1.81C44.12,2.32,43.86,2.23,43.58,2.23L43.58,2.23z"/>
			</g>
			<g>
				<path class="st2" d="M44.24,22.34c0.13,0,0.25,0.04,0.36,0.12c0.28,0.2,0.34,0.59,0.14,0.87c-0.12,0.17-0.31,0.26-0.5,0.26
					c-0.13,0-0.25-0.04-0.36-0.12c-0.28-0.2-0.34-0.59-0.14-0.87C43.86,22.42,44.05,22.34,44.24,22.34 M44.24,21.67L44.24,21.67
					c-0.41,0-0.8,0.2-1.04,0.53c-0.2,0.28-0.28,0.62-0.23,0.96c0.06,0.34,0.24,0.64,0.52,0.84c0.22,0.16,0.48,0.24,0.75,0.24
					c0.41,0,0.8-0.2,1.04-0.53c0.2-0.28,0.28-0.62,0.23-0.96c-0.06-0.34-0.24-0.64-0.52-0.84C44.77,21.76,44.51,21.67,44.24,21.67
					L44.24,21.67z"/>
			</g>
			<g>
				<path class="st2" d="M34.12,15c0.13,0,0.25,0.04,0.36,0.12c0.28,0.2,0.34,0.59,0.14,0.87c-0.12,0.17-0.31,0.26-0.5,0.26
					c-0.13,0-0.25-0.04-0.36-0.12c-0.28-0.2-0.34-0.59-0.14-0.87C33.73,15.09,33.92,15,34.12,15 M34.12,14.33L34.12,14.33
					c-0.41,0-0.8,0.2-1.04,0.53c-0.2,0.28-0.28,0.62-0.23,0.96c0.06,0.34,0.24,0.64,0.52,0.84c0.22,0.16,0.48,0.24,0.75,0.24
					c0.41,0,0.8-0.2,1.04-0.53c0.2-0.28,0.28-0.62,0.23-0.96c-0.06-0.34-0.24-0.64-0.52-0.84C34.65,14.42,34.39,14.33,34.12,14.33
					L34.12,14.33z"/>
			</g>
		</g>
		<g>
			<g>
				<polygon class="st2" points="47.23,32.23 46.91,31.28 60.41,26.76 59.46,23.93 54.02,23.85 57.96,19.98 56.91,16.85 
					57.86,16.53 59.1,20.26 56.42,22.89 60.18,22.94 61.67,27.39 				"/>
			</g>
			<g>
				<polygon class="st2" points="43.29,20.33 42.97,19.39 53.96,15.71 54.84,18.32 53.89,18.63 53.34,16.97 				"/>
			</g>
			<g>
				<path class="st2" d="M54.68,18.67c0.26,0,0.5,0.16,0.59,0.42c0.11,0.33-0.07,0.68-0.39,0.79c-0.07,0.02-0.13,0.03-0.2,0.03
					c-0.26,0-0.5-0.16-0.59-0.42c-0.11-0.33,0.07-0.68,0.39-0.79C54.55,18.68,54.62,18.67,54.68,18.67 M54.68,18.01L54.68,18.01
					c-0.14,0-0.28,0.02-0.41,0.07c-0.33,0.11-0.59,0.34-0.74,0.65c-0.15,0.31-0.18,0.66-0.07,0.98c0.18,0.52,0.67,0.88,1.22,0.88
					c0.14,0,0.28-0.02,0.41-0.07c0.33-0.11,0.59-0.34,0.74-0.65c0.15-0.31,0.18-0.66,0.07-0.98C55.73,18.36,55.24,18.01,54.68,18.01
					L54.68,18.01z"/>
			</g>
			<g>
				<path class="st2" d="M57.04,15.33c0.27,0,0.51,0.17,0.6,0.43c0.11,0.33-0.07,0.69-0.4,0.8c-0.07,0.02-0.13,0.03-0.2,0.03
					c-0.27,0-0.51-0.17-0.6-0.43c-0.11-0.33,0.07-0.69,0.4-0.8C56.9,15.34,56.97,15.33,57.04,15.33 M57.04,14.66
					c-0.14,0-0.28,0.02-0.41,0.07c-0.68,0.23-1.05,0.96-0.82,1.64c0.18,0.53,0.67,0.89,1.23,0.89c0.14,0,0.28-0.02,0.41-0.07
					c0.68-0.23,1.05-0.96,0.82-1.64C58.09,15.02,57.59,14.66,57.04,14.66L57.04,14.66z"/>
			</g>
			<g>
				<path class="st2" d="M46.22,31.49c0.26,0,0.5,0.16,0.59,0.42c0.11,0.33-0.07,0.68-0.39,0.79c-0.07,0.02-0.13,0.03-0.2,0.03
					c-0.26,0-0.5-0.16-0.59-0.42c-0.11-0.33,0.07-0.68,0.39-0.79C46.09,31.5,46.16,31.49,46.22,31.49 M46.22,30.83L46.22,30.83
					c-0.14,0-0.28,0.02-0.41,0.07c-0.67,0.22-1.03,0.95-0.81,1.63c0.18,0.52,0.67,0.88,1.22,0.88c0.14,0,0.28-0.02,0.41-0.07
					c0.33-0.11,0.59-0.34,0.74-0.65c0.15-0.31,0.18-0.66,0.07-0.98C47.27,31.18,46.78,30.83,46.22,30.83L46.22,30.83z"/>
			</g>
			<g>
				<path class="st2" d="M42.29,19.62c0.26,0,0.5,0.16,0.59,0.42c0.11,0.33-0.07,0.68-0.39,0.79c-0.07,0.02-0.13,0.03-0.2,0.03
					c-0.26,0-0.5-0.16-0.59-0.42c-0.11-0.33,0.07-0.68,0.39-0.79C42.16,19.63,42.23,19.62,42.29,19.62 M42.29,18.96L42.29,18.96
					c-0.14,0-0.28,0.02-0.41,0.07c-0.67,0.22-1.03,0.95-0.81,1.63c0.18,0.52,0.67,0.88,1.22,0.88c0.14,0,0.28-0.02,0.41-0.07
					c0.33-0.11,0.59-0.34,0.74-0.65c0.15-0.31,0.18-0.66,0.07-0.98C43.33,19.31,42.85,18.96,42.29,18.96L42.29,18.96z"/>
			</g>
		</g>
		<g>
			<g>
				<polygon class="st2" points="57.78,45.9 43.23,41.38 43.53,40.43 57.13,44.65 58.01,41.79 53.63,38.55 59.1,37.71 60.08,34.56 
					61.03,34.86 59.86,38.6 56.14,39.17 59.17,41.42 				"/>
			</g>
			<g>
				<polygon class="st2" points="57.53,34.54 56.58,34.25 57.1,32.56 46.98,29.43 47.28,28.48 58.35,31.91 				"/>
			</g>
			<g>
				<path class="st2" d="M56.84,34.62c0.06,0,0.12,0.01,0.18,0.03c0.33,0.1,0.51,0.45,0.41,0.78c-0.08,0.27-0.33,0.44-0.59,0.44
					c-0.06,0-0.12-0.01-0.18-0.03c-0.33-0.1-0.51-0.45-0.41-0.78C56.33,34.79,56.57,34.62,56.84,34.62 M56.84,33.96L56.84,33.96
					c-0.57,0-1.06,0.36-1.23,0.9c-0.1,0.33-0.07,0.68,0.09,0.98c0.16,0.3,0.43,0.53,0.76,0.63c0.12,0.04,0.25,0.06,0.38,0.06
					c0.57,0,1.06-0.36,1.23-0.9c0.1-0.33,0.07-0.68-0.09-0.98c-0.16-0.3-0.43-0.53-0.76-0.63C57.1,33.98,56.97,33.96,56.84,33.96
					L56.84,33.96z"/>
			</g>
			<g>
				<path class="st2" d="M60.69,33.27c0.06,0,0.13,0.01,0.19,0.03c0.34,0.1,0.52,0.46,0.42,0.79c-0.08,0.27-0.34,0.45-0.61,0.45
					c-0.06,0-0.13-0.01-0.19-0.03c-0.34-0.1-0.52-0.46-0.42-0.79C60.17,33.45,60.42,33.27,60.69,33.27 M60.69,32.61L60.69,32.61
					c-0.57,0-1.07,0.37-1.24,0.91c-0.21,0.68,0.17,1.41,0.86,1.62c0.12,0.04,0.25,0.06,0.38,0.06c0.57,0,1.07-0.37,1.24-0.91
					c0.21-0.68-0.17-1.41-0.86-1.62C60.95,32.63,60.82,32.61,60.69,32.61L60.69,32.61z"/>
			</g>
			<g>
				<path class="st2" d="M42.48,40.08c0.06,0,0.12,0.01,0.18,0.03c0.33,0.1,0.51,0.45,0.41,0.78c-0.08,0.27-0.33,0.44-0.59,0.44
					c-0.06,0-0.12-0.01-0.18-0.03c-0.33-0.1-0.51-0.45-0.41-0.78C41.97,40.26,42.22,40.08,42.48,40.08 M42.48,39.42L42.48,39.42
					c-0.57,0-1.06,0.36-1.23,0.9c-0.21,0.68,0.17,1.4,0.85,1.61c0.12,0.04,0.25,0.06,0.38,0.06c0.57,0,1.06-0.36,1.23-0.9
					c0.1-0.33,0.07-0.68-0.09-0.98c-0.16-0.3-0.43-0.53-0.76-0.63C42.74,39.44,42.61,39.42,42.48,39.42L42.48,39.42z"/>
			</g>
			<g>
				<path class="st2" d="M46.23,28.15c0.06,0,0.12,0.01,0.18,0.03c0.33,0.1,0.51,0.45,0.41,0.78c-0.08,0.27-0.33,0.44-0.59,0.44
					c-0.06,0-0.12-0.01-0.18-0.03c-0.33-0.1-0.51-0.45-0.41-0.78C45.72,28.32,45.96,28.15,46.23,28.15 M46.23,27.49L46.23,27.49
					c-0.57,0-1.06,0.36-1.23,0.9c-0.1,0.33-0.07,0.68,0.09,0.98c0.16,0.3,0.43,0.53,0.76,0.63c0.12,0.04,0.25,0.06,0.38,0.06
					c0.57,0,1.06-0.36,1.23-0.9c0.21-0.68-0.17-1.4-0.85-1.61C46.48,27.51,46.35,27.49,46.23,27.49L46.23,27.49z"/>
			</g>
		</g>
		<g>
			<g>
				<polygon class="st2" points="43.82,58.64 34.64,46.48 35.44,45.89 44.01,57.25 46.4,55.45 44.74,50.26 49.66,52.77 52.3,50.78 
					52.9,51.58 49.77,53.94 46.41,52.23 47.56,55.82 				"/>
			</g>
			<g>
				<polygon class="st2" points="50.25,49.28 49.65,48.49 51.05,47.43 44.67,38.97 45.46,38.37 52.45,47.62 				"/>
			</g>
			<g>
				<path class="st2" d="M49.27,48.82c0.19,0,0.37,0.09,0.5,0.25c0.21,0.27,0.15,0.66-0.12,0.87c-0.11,0.08-0.24,0.13-0.37,0.13
					c-0.19,0-0.37-0.09-0.5-0.25c-0.21-0.27-0.15-0.66,0.12-0.87C49.01,48.86,49.14,48.82,49.27,48.82 M49.27,48.16L49.27,48.16
					c-0.28,0-0.55,0.09-0.77,0.26c-0.56,0.43-0.68,1.23-0.25,1.8c0.24,0.32,0.62,0.51,1.03,0.51c0.28,0,0.55-0.09,0.77-0.26
					c0.27-0.21,0.45-0.51,0.5-0.85c0.05-0.34-0.04-0.68-0.25-0.95C50.06,48.35,49.67,48.16,49.27,48.16L49.27,48.16z"/>
			</g>
			<g>
				<path class="st2" d="M53.18,49.98c0.19,0,0.38,0.09,0.51,0.25c0.21,0.28,0.16,0.68-0.12,0.89c-0.11,0.09-0.25,0.13-0.38,0.13
					c-0.19,0-0.38-0.09-0.51-0.25c-0.21-0.28-0.16-0.68,0.12-0.89C52.91,50.02,53.05,49.98,53.18,49.98 M53.18,49.32L53.18,49.32
					c-0.28,0-0.55,0.09-0.78,0.26c-0.57,0.43-0.69,1.25-0.25,1.82c0.24,0.32,0.63,0.52,1.04,0.52c0.28,0,0.55-0.09,0.78-0.26
					c0.28-0.21,0.46-0.51,0.5-0.86c0.05-0.34-0.04-0.69-0.25-0.96C53.97,49.51,53.59,49.32,53.18,49.32L53.18,49.32z"/>
			</g>
			<g>
				<path class="st2" d="M34.43,44.87c0.19,0,0.37,0.09,0.5,0.25c0.21,0.27,0.15,0.66-0.12,0.87c-0.11,0.08-0.24,0.13-0.37,0.13
					c-0.19,0-0.37-0.09-0.5-0.25c-0.21-0.27-0.15-0.66,0.12-0.87C34.17,44.91,34.3,44.87,34.43,44.87 M34.43,44.21L34.43,44.21
					c-0.28,0-0.55,0.09-0.77,0.26c-0.56,0.43-0.68,1.23-0.25,1.8c0.24,0.32,0.62,0.51,1.03,0.51c0.28,0,0.55-0.09,0.77-0.26
					c0.27-0.21,0.45-0.51,0.5-0.85c0.05-0.34-0.04-0.68-0.25-0.95C35.21,44.4,34.83,44.21,34.43,44.21L34.43,44.21z"/>
			</g>
			<g>
				<path class="st2" d="M44.44,37.38c0.19,0,0.37,0.09,0.5,0.25c0.21,0.27,0.15,0.66-0.12,0.87c-0.11,0.08-0.24,0.13-0.37,0.13
					c-0.19,0-0.37-0.09-0.5-0.25c-0.21-0.27-0.15-0.66,0.12-0.87C44.17,37.42,44.31,37.38,44.44,37.38 M44.44,36.71L44.44,36.71
					c-0.28,0-0.55,0.09-0.77,0.26c-0.27,0.21-0.45,0.51-0.5,0.85c-0.05,0.34,0.04,0.68,0.25,0.95c0.24,0.32,0.62,0.51,1.03,0.51
					c0.28,0,0.55-0.09,0.77-0.26c0.57-0.43,0.68-1.23,0.25-1.8C45.22,36.9,44.84,36.71,44.44,36.71L44.44,36.71z"/>
			</g>
		</g>
		<g>
			<g>
				<polygon class="st2" points="25.03,60.83 24.69,45.6 25.68,45.58 26.01,59.81 28.99,59.75 30.68,54.57 33.21,59.48 36.51,59.41 
					36.53,60.4 32.61,60.49 30.89,57.14 29.72,60.73 				"/>
			</g>
			<g>
				<polygon class="st2" points="35.72,56.99 35.7,55.99 37.46,55.96 37.22,45.36 38.21,45.34 38.48,56.93 				"/>
			</g>
			<g>
				<path class="st2" d="M34.84,55.93c0.34,0,0.61,0.27,0.62,0.61c0.01,0.34-0.26,0.63-0.61,0.63c0,0-0.01,0-0.01,0
					c-0.34,0-0.61-0.27-0.62-0.61c-0.01-0.34,0.26-0.63,0.61-0.63C34.83,55.93,34.83,55.93,34.84,55.93 M34.84,55.27L34.84,55.27
					l-0.03,0c-0.34,0.01-0.66,0.15-0.9,0.4c-0.24,0.25-0.36,0.57-0.36,0.92c0.02,0.69,0.59,1.26,1.28,1.26
					c0.37-0.01,0.69-0.15,0.93-0.4c0.24-0.25,0.36-0.57,0.36-0.92C36.1,55.83,35.53,55.27,34.84,55.27L34.84,55.27z"/>
			</g>
			<g>
				<path class="st2" d="M37.32,59.15c0.34,0,0.63,0.27,0.63,0.62c0.01,0.35-0.27,0.64-0.62,0.65c0,0-0.01,0-0.01,0
					c-0.34,0-0.63-0.27-0.63-0.62c-0.01-0.35,0.27-0.64,0.62-0.65C37.31,59.15,37.32,59.15,37.32,59.15 M37.32,58.49L37.32,58.49
					l-0.03,0c-0.35,0.01-0.67,0.15-0.91,0.4c-0.24,0.25-0.37,0.58-0.36,0.93c0.02,0.7,0.6,1.27,1.3,1.27
					c0.75-0.02,1.31-0.61,1.3-1.33C38.6,59.06,38.02,58.49,37.32,58.49L37.32,58.49z"/>
			</g>
			<g>
				<path class="st2" d="M25.1,44.06c0.34,0,0.61,0.27,0.62,0.61c0.01,0.34-0.26,0.63-0.61,0.63c0,0-0.01,0-0.01,0
					c-0.34,0-0.61-0.27-0.62-0.61c-0.01-0.34,0.26-0.63,0.61-0.63C25.09,44.06,25.09,44.06,25.1,44.06 M25.1,43.39L25.1,43.39
					l-0.03,0c-0.34,0.01-0.66,0.15-0.9,0.4c-0.24,0.25-0.36,0.57-0.36,0.92c0.02,0.69,0.59,1.26,1.28,1.26
					c0.37-0.01,0.69-0.15,0.93-0.4c0.24-0.25,0.36-0.57,0.36-0.92C26.36,43.96,25.79,43.39,25.1,43.39L25.1,43.39z"/>
			</g>
			<g>
				<path class="st2" d="M37.6,43.82c0.34,0,0.61,0.27,0.62,0.61c0.01,0.34-0.26,0.63-0.61,0.63c0,0-0.01,0-0.01,0
					c-0.34,0-0.61-0.27-0.62-0.61c-0.01-0.34,0.26-0.63,0.61-0.63C37.59,43.82,37.59,43.82,37.6,43.82 M37.6,43.15L37.6,43.15
					l-0.03,0c-0.34,0.01-0.66,0.15-0.9,0.4c-0.24,0.25-0.36,0.57-0.36,0.92c0.02,0.69,0.59,1.26,1.28,1.26
					c0.74-0.02,1.3-0.61,1.28-1.31C38.86,43.72,38.29,43.15,37.6,43.15L37.6,43.15z"/>
			</g>
		</g>
		<g>
			<g>
				<polygon class="st2" points="18.09,58 14.86,55.79 15.41,52.06 12.38,54.29 8.51,51.64 17.13,39.08 17.95,39.64 9.89,51.38 
					12.36,53.07 16.75,49.85 15.93,55.32 18.66,57.18 				"/>
			</g>
			<g>
				<polygon class="st2" points="21.7,56.32 19.43,54.76 19.99,53.94 21.44,54.94 27.44,46.2 28.26,46.76 				"/>
			</g>
			<g>
				<path class="st2" d="M18.97,53.27c0.12,0,0.24,0.04,0.35,0.11c0.28,0.19,0.35,0.58,0.16,0.86c-0.12,0.18-0.31,0.27-0.51,0.27
					c-0.12,0-0.24-0.04-0.35-0.11c-0.28-0.19-0.35-0.58-0.16-0.86C18.57,53.36,18.77,53.27,18.97,53.27 M18.97,52.61L18.97,52.61
					c-0.42,0-0.82,0.21-1.06,0.56c-0.4,0.58-0.25,1.39,0.33,1.79c0.21,0.15,0.47,0.23,0.73,0.23c0.42,0,0.82-0.21,1.06-0.56
					c0.19-0.28,0.27-0.62,0.2-0.96c-0.06-0.34-0.25-0.63-0.54-0.82C19.48,52.68,19.23,52.61,18.97,52.61L18.97,52.61z"/>
			</g>
			<g>
				<path class="st2" d="M19.1,57.33c0.12,0,0.25,0.04,0.36,0.11c0.29,0.2,0.36,0.59,0.16,0.88c-0.12,0.18-0.32,0.28-0.52,0.28
					c-0.12,0-0.25-0.04-0.36-0.11c-0.29-0.2-0.36-0.59-0.16-0.88C18.69,57.43,18.89,57.33,19.1,57.33 M19.1,56.67
					c-0.43,0-0.83,0.21-1.07,0.56c-0.4,0.59-0.25,1.4,0.34,1.81c0.22,0.15,0.47,0.23,0.73,0.23c0.43,0,0.83-0.21,1.07-0.56
					c0.4-0.59,0.25-1.4-0.34-1.81C19.61,56.75,19.36,56.67,19.1,56.67L19.1,56.67z"/>
			</g>
			<g>
				<path class="st2" d="M18,37.94c0.12,0,0.24,0.04,0.35,0.11c0.28,0.19,0.35,0.58,0.16,0.86c-0.12,0.18-0.31,0.27-0.51,0.27
					c-0.12,0-0.24-0.04-0.35-0.11c-0.28-0.19-0.35-0.58-0.16-0.86C17.6,38.03,17.8,37.94,18,37.94 M18,37.28L18,37.28
					c-0.42,0-0.82,0.21-1.06,0.56c-0.4,0.58-0.25,1.39,0.33,1.79c0.21,0.15,0.47,0.23,0.73,0.23c0.42,0,0.82-0.21,1.06-0.56
					c0.19-0.28,0.27-0.62,0.2-0.96c-0.06-0.34-0.25-0.63-0.54-0.82C18.51,37.35,18.26,37.28,18,37.28L18,37.28z"/>
			</g>
			<g>
				<path class="st2" d="M28.28,45.05c0.12,0,0.24,0.04,0.35,0.11c0.28,0.19,0.35,0.58,0.16,0.86c-0.12,0.18-0.31,0.27-0.51,0.27
					c-0.12,0-0.24-0.04-0.35-0.11c-0.28-0.19-0.35-0.58-0.16-0.86C27.89,45.14,28.09,45.05,28.28,45.05 M28.28,44.38L28.28,44.38
					c-0.42,0-0.82,0.21-1.06,0.56c-0.4,0.58-0.25,1.38,0.33,1.79c0.21,0.15,0.47,0.23,0.73,0.23c0.42,0,0.82-0.21,1.06-0.56
					c0.4-0.58,0.25-1.38-0.33-1.79C28.8,44.46,28.54,44.38,28.28,44.38L28.28,44.38z"/>
			</g>
		</g>
		<g>
			<g>
				<polygon class="st2" points="4.53,45.29 3.2,41.6 5.82,38.9 2.06,38.93 0.47,34.52 14.8,29.36 15.14,30.3 1.74,35.12 
					2.76,37.93 8.2,37.89 4.35,41.85 5.47,44.95 				"/>
			</g>
			<g>
				<polygon class="st2" points="8.44,46.03 7.51,43.44 8.44,43.1 9.04,44.76 19.01,41.16 19.34,42.1 				"/>
			</g>
			<g>
				<path class="st2" d="M7.64,41.84c0.25,0,0.49,0.16,0.58,0.41c0.12,0.32-0.05,0.68-0.37,0.79c-0.07,0.03-0.14,0.04-0.21,0.04
					c-0.25,0-0.49-0.16-0.58-0.41c-0.12-0.32,0.05-0.68,0.37-0.79C7.5,41.85,7.57,41.84,7.64,41.84 M7.64,41.17L7.64,41.17
					c-0.15,0-0.3,0.03-0.44,0.08c-0.32,0.12-0.58,0.35-0.73,0.66c-0.15,0.31-0.16,0.66-0.05,0.98c0.18,0.51,0.67,0.85,1.21,0.85
					c0.15,0,0.29-0.03,0.44-0.08C8.4,43.55,8.65,43.32,8.8,43c0.15-0.31,0.16-0.66,0.05-0.98C8.66,41.52,8.18,41.17,7.64,41.17
					L7.64,41.17z"/>
			</g>
			<g>
				<path class="st2" d="M5.36,45.21c0.26,0,0.5,0.16,0.6,0.42c0.12,0.33-0.05,0.69-0.38,0.81c-0.07,0.03-0.14,0.04-0.22,0.04
					c-0.26,0-0.5-0.16-0.6-0.42c-0.12-0.33,0.05-0.69,0.38-0.81C5.22,45.22,5.29,45.21,5.36,45.21 M5.36,44.54L5.36,44.54
					c-0.15,0-0.3,0.03-0.44,0.08c-0.67,0.24-1.02,0.99-0.78,1.66c0.19,0.51,0.68,0.86,1.22,0.86c0.15,0,0.3-0.03,0.44-0.08
					c0.33-0.12,0.59-0.36,0.73-0.67c0.15-0.31,0.16-0.67,0.05-0.99C6.4,44.89,5.91,44.54,5.36,44.54L5.36,44.54z"/>
			</g>
			<g>
				<path class="st2" d="M15.81,28.83c0.25,0,0.49,0.16,0.58,0.41c0.12,0.32-0.05,0.68-0.37,0.79c-0.07,0.03-0.14,0.04-0.21,0.04
					c-0.25,0-0.49-0.16-0.58-0.41c-0.12-0.32,0.05-0.68,0.37-0.79C15.67,28.84,15.74,28.83,15.81,28.83 M15.81,28.17
					c-0.15,0-0.3,0.03-0.44,0.08c-0.67,0.24-1.01,0.98-0.77,1.64c0.18,0.51,0.67,0.85,1.21,0.85c0.15,0,0.29-0.03,0.44-0.08
					c0.32-0.12,0.58-0.35,0.73-0.66c0.15-0.31,0.16-0.66,0.05-0.98C16.83,28.51,16.35,28.17,15.81,28.17L15.81,28.17z"/>
			</g>
			<g>
				<path class="st2" d="M20.01,40.61c0.25,0,0.49,0.16,0.58,0.41c0.12,0.32-0.05,0.68-0.37,0.79c-0.07,0.03-0.14,0.04-0.21,0.04
					c-0.25,0-0.49-0.16-0.58-0.41c-0.12-0.32,0.05-0.68,0.37-0.79C19.86,40.62,19.94,40.61,20.01,40.61 M20.01,39.94
					c-0.15,0-0.29,0.03-0.44,0.08c-0.67,0.24-1.01,0.98-0.77,1.64c0.18,0.51,0.67,0.85,1.21,0.85c0.15,0,0.29-0.03,0.44-0.08
					c0.67-0.24,1.01-0.98,0.77-1.64C21.03,40.28,20.54,39.94,20.01,39.94L20.01,39.94z"/>
			</g>
		</g>
		<g>
			<g>
				<polygon class="st2" points="1.9,27.32 0.95,27.05 2.02,23.27 5.73,22.62 2.65,20.44 3.94,15.93 18.59,20.11 18.31,21.07 
					4.62,17.16 3.8,20.04 8.25,23.18 2.81,24.14 				"/>
			</g>
			<g>
				<polygon class="st2" points="14.83,33.11 3.69,29.93 4.44,27.28 5.4,27.55 4.92,29.25 15.11,32.15 				"/>
			</g>
			<g>
				<path class="st2" d="M5.12,25.94c0.06,0,0.11,0.01,0.17,0.02c0.33,0.09,0.52,0.44,0.43,0.77c-0.08,0.27-0.33,0.45-0.6,0.45
					c-0.06,0-0.11-0.01-0.17-0.02c-0.33-0.09-0.52-0.44-0.43-0.77C4.6,26.12,4.85,25.94,5.12,25.94 M5.12,25.28L5.12,25.28
					c-0.57,0-1.08,0.38-1.23,0.93c-0.19,0.68,0.2,1.39,0.88,1.59c0.11,0.03,0.23,0.05,0.35,0.05c0.57,0,1.08-0.38,1.23-0.93
					c0.19-0.68-0.2-1.39-0.88-1.59C5.36,25.3,5.24,25.28,5.12,25.28L5.12,25.28z"/>
			</g>
			<g>
				<path class="st2" d="M1.3,27.35c0.06,0,0.12,0.01,0.17,0.02c0.34,0.1,0.53,0.45,0.44,0.78c-0.08,0.28-0.33,0.46-0.61,0.46
					c-0.06,0-0.12-0.01-0.17-0.02c-0.34-0.1-0.53-0.45-0.44-0.78C0.77,27.53,1.02,27.35,1.3,27.35 M1.3,26.68L1.3,26.68
					c-0.58,0-1.09,0.39-1.25,0.94c-0.2,0.69,0.2,1.41,0.89,1.6c0.12,0.03,0.24,0.05,0.36,0.05c0.58,0,1.09-0.39,1.25-0.94
					c0.1-0.33,0.05-0.68-0.11-0.99c-0.17-0.3-0.45-0.52-0.78-0.62C1.54,26.7,1.42,26.68,1.3,26.68L1.3,26.68z"/>
			</g>
			<g>
				<path class="st2" d="M19.35,20.15c0.06,0,0.11,0.01,0.17,0.02c0.33,0.09,0.52,0.44,0.43,0.77c-0.08,0.27-0.33,0.45-0.6,0.45
					c-0.06,0-0.11-0.01-0.17-0.02c-0.33-0.09-0.52-0.44-0.43-0.77C18.83,20.33,19.08,20.15,19.35,20.15 M19.35,19.49L19.35,19.49
					c-0.57,0-1.08,0.38-1.23,0.93c-0.19,0.68,0.2,1.39,0.88,1.59c0.11,0.03,0.23,0.05,0.35,0.05c0.57,0,1.08-0.38,1.23-0.93
					c0.19-0.68-0.2-1.39-0.88-1.59C19.59,19.51,19.47,19.49,19.35,19.49L19.35,19.49z"/>
			</g>
			<g>
				<path class="st2" d="M15.88,32.17c0.06,0,0.11,0.01,0.17,0.02c0.33,0.09,0.52,0.44,0.43,0.77c-0.08,0.27-0.33,0.45-0.6,0.45
					c-0.06,0-0.11-0.01-0.17-0.02c-0.33-0.09-0.52-0.44-0.43-0.77C15.36,32.34,15.61,32.17,15.88,32.17 M15.88,31.5
					c-0.57,0-1.08,0.38-1.23,0.93c-0.09,0.33-0.05,0.68,0.11,0.98c0.17,0.3,0.44,0.52,0.77,0.61c0.11,0.03,0.23,0.05,0.35,0.05
					c0.57,0,1.08-0.38,1.23-0.93c0.19-0.68-0.2-1.39-0.88-1.59C16.12,31.52,16,31.5,15.88,31.5L15.88,31.5z"/>
			</g>
		</g>
		<g>
			<g>
				<polygon class="st2" points="26.28,15.44 17.45,4.27 15.11,6.12 16.88,11.28 11.9,8.88 9.31,10.92 8.69,10.14 11.77,7.71 
					15.16,9.34 13.94,5.78 17.61,2.88 27.06,14.82 				"/>
			</g>
			<g>
				<polygon class="st2" points="16.42,23.18 9.24,14.09 11.4,12.38 12.01,13.16 10.63,14.25 17.2,22.56 				"/>
			</g>
			<g>
				<path class="st2" d="M12.37,11.57c0.18,0,0.36,0.08,0.49,0.24c0.21,0.27,0.17,0.66-0.1,0.87c-0.11,0.09-0.25,0.13-0.38,0.13
					c-0.18,0-0.37-0.08-0.49-0.24c-0.21-0.27-0.17-0.66,0.1-0.87C12.09,11.62,12.23,11.57,12.37,11.57 M12.37,10.91
					c-0.29,0-0.57,0.1-0.8,0.28c-0.27,0.21-0.44,0.52-0.48,0.86c-0.04,0.34,0.06,0.68,0.27,0.95c0.25,0.31,0.61,0.49,1.01,0.49
					c0.29,0,0.57-0.1,0.8-0.28c0.56-0.44,0.65-1.25,0.21-1.8C13.13,11.09,12.76,10.91,12.37,10.91L12.37,10.91z"/>
			</g>
			<g>
				<path class="st2" d="M8.43,10.47c0.19,0,0.37,0.08,0.5,0.24c0.22,0.28,0.17,0.67-0.1,0.89c-0.12,0.09-0.26,0.14-0.39,0.14
					c-0.19,0-0.37-0.08-0.5-0.24c-0.22-0.28-0.17-0.67,0.1-0.89C8.16,10.52,8.29,10.47,8.43,10.47 M8.43,9.81L8.43,9.81
					c-0.29,0-0.58,0.1-0.8,0.28c-0.27,0.22-0.44,0.52-0.48,0.87C7.1,11.3,7.2,11.64,7.41,11.92c0.25,0.31,0.62,0.49,1.02,0.49
					c0.29,0,0.58-0.1,0.8-0.28c0.56-0.44,0.66-1.26,0.21-1.82C9.2,9.99,8.83,9.81,8.43,9.81L8.43,9.81z"/>
			</g>
			<g>
				<path class="st2" d="M27.29,15.19c0.18,0,0.36,0.08,0.49,0.24c0.21,0.27,0.17,0.66-0.1,0.87c-0.11,0.09-0.25,0.13-0.38,0.13
					c-0.18,0-0.37-0.08-0.49-0.24c-0.21-0.27-0.17-0.66,0.1-0.87C27.02,15.23,27.16,15.19,27.29,15.19 M27.29,14.52
					c-0.29,0-0.57,0.1-0.8,0.28c-0.56,0.44-0.65,1.25-0.21,1.8c0.25,0.31,0.61,0.49,1.01,0.49c0.29,0,0.57-0.1,0.8-0.28
					c0.27-0.21,0.44-0.52,0.48-0.86c0.04-0.34-0.06-0.68-0.27-0.95C28.06,14.7,27.69,14.52,27.29,14.52L27.29,14.52z"/>
			</g>
			<g>
				<path class="st2" d="M17.46,22.91c0.18,0,0.36,0.08,0.49,0.24c0.21,0.27,0.17,0.66-0.1,0.87c-0.11,0.09-0.25,0.13-0.38,0.13
					c-0.18,0-0.36-0.08-0.49-0.24c-0.21-0.27-0.17-0.66,0.1-0.87C17.19,22.95,17.33,22.91,17.46,22.91 M17.46,22.24
					c-0.29,0-0.57,0.1-0.8,0.28c-0.56,0.44-0.65,1.25-0.21,1.8c0.25,0.31,0.61,0.49,1.01,0.49c0.29,0,0.57-0.1,0.8-0.28
					c0.27-0.21,0.44-0.52,0.48-0.86c0.04-0.34-0.06-0.68-0.27-0.95C18.22,22.42,17.86,22.24,17.46,22.24L17.46,22.24z"/>
			</g>
		</g>
	</g>
</g>
</svg>
